SplineFontDB: 3.2
FontName: BigBlueButton
FullName: BigBlueButton
FamilyName: BigBlueButton
Weight: Regular
Copyright: Copyright (c) 2016-2023, BigBlueButton Inc.
UComments: "2016-12-26: Created with FontForge (http://fontforge.org)"
Version: 001.000
ItalicAngle: 0
UnderlinePosition: -102
UnderlineWidth: 51
Ascent: 819
Descent: 205
InvalidEm: 0
LayerCount: 3
Layer: 0 0 "Back" 1
Layer: 1 0 "Fore" 0
Layer: 2 0 "Back 2" 1
XUID: [1021 189 671884325 3887]
StyleMap: 0x0000
FSType: 0
OS2Version: 0
OS2_WeightWidthSlopeOnly: 0
OS2_UseTypoMetrics: 1
CreationTime: 1482757104
ModificationTime: 1679430553
PfmFamily: 17
TTFWeight: 400
TTFWidth: 5
LineGap: 92
VLineGap: 0
OS2TypoAscent: 0
OS2TypoAOffset: 1
OS2TypoDescent: 0
OS2TypoDOffset: 1
OS2TypoLinegap: 92
OS2WinAscent: 0
OS2WinAOffset: 1
OS2WinDescent: 0
OS2WinDOffset: 1
HheadAscent: 0
HheadAOffset: 1
HheadDescent: 0
HheadDOffset: 1
OS2Vendor: 'PfEd'
MarkAttachClasses: 1
DEI: 91125
LangName: 1033
Encoding: Custom
UnicodeInterp: none
NameList: AGL For New Fonts
DisplaySize: -72
AntiAlias: 1
FitToEm: 0
WinInfo: 0 39 14
BeginPrivate: 0
EndPrivate
TeXData: 1 0 0 536576 268288 178858 0 1048576 178858 783286 444596 497025 792723 393216 433062 380633 303038 157286 324010 404750 52429 2506097 1059062 262144
BeginChars: 107 107

StartChar: logout
Encoding: 2 59648 2
Width: 1024
Flags: W
HStem: -183 66<104.934 272.547> 270 60<210.937 870> 723 64<104.934 272.116>
VStem: 10 63<-85.0386 692.066>
LayerCount: 3
Fore
SplineSet
160 -117 m 2
 244 -117 l 2
 263 -117 274 -131 274 -149 c 0
 274 -165 267 -183 244 -183 c 2
 160 -183 l 2
 77 -183 10 -117 10 -33 c 2
 10 637 l 2
 10 720 77 787 160 787 c 2
 244 787 l 2
 260 787 274 770 274 755 c 0
 274 739 265 723 244 723 c 2
 160 723 l 2
 113 723 73 683 73 637 c 2
 73 -30 l 2
 73 -77 113 -117 160 -117 c 2
676 -9 m 2
 670 -14 662 -17 654 -17 c 0
 647 -17 639 -14 633 -9 c 0
 627 -4 625 3 625 10 c 0
 625 19 630 30 637 37 c 2
 870 270 l 1
 245 270 l 2
 223 270 210 282 210 300 c 24
 210 318 223 330 245 330 c 2
 870 330 l 1
 637 563 l 2
 630 570 626 579 626 588 c 0
 626 597 630 605 637 611 c 0
 643 616 651 619 658 619 c 0
 666 619 674 616 680 610 c 2
 680 610 963 327 990 300 c 1
 960 270 676 -9 676 -9 c 2
EndSplineSet
Validated: 1
EndChar

StartChar: application
Encoding: 3 59649 3
Width: 1024
VWidth: 0
HStem: -65 65<83 946> 471 65<83 946> 553 48<148.072 195.928 246.072 293.928 342.072 389.928> 618 61<83 946>
VStem: 18 65<0 471 536 618> 148 48<553.072 600.928> 246 48<553.072 600.928> 342 48<553.072 600.928> 946 61<0 471 536 618>
LayerCount: 3
Fore
SplineSet
952 679 m 2
 983 679 1007 655 1007 624 c 2
 1007 -10 l 2
 1007 -41 983 -65 952 -65 c 2
 76 -65 l 2
 42 -65 18 -41 18 -10 c 2
 18 624 l 2
 21 655 45 679 76 679 c 2
 952 679 l 2
946 618 m 1
 83 618 l 1
 83 536 l 1
 946 536 l 1
 946 618 l 1
83 0 m 1
 946 0 l 1
 946 471 l 1
 83 471 l 1
 83 317 83 141 83 0 c 1
246 577 m 0
 246 590 257 601 270 601 c 0
 283 601 294 590 294 577 c 0
 294 564 283 553 270 553 c 0
 257 553 246 564 246 577 c 0
148 577 m 0
 148 590 159 601 172 601 c 0
 185 601 196 590 196 577 c 0
 196 564 185 553 172 553 c 0
 159 553 148 564 148 577 c 0
342 577 m 0
 342 590 353 601 366 601 c 0
 379 601 390 590 390 577 c 0
 390 564 379 553 366 553 c 0
 353 553 342 564 342 577 c 0
EndSplineSet
Validated: 1
EndChar

StartChar: more
Encoding: 4 59650 4
Width: 1024
VWidth: 0
Flags: W
HStem: 198 218<60.8691 191.922 446.869 577.131 832.078 963.131>
VStem: 17 219<241.869 372.131> 403 218<241.869 372.131> 788 219<241.869 372.131>
CounterMasks: 1 70
LayerCount: 3
Fore
SplineSet
17 307 m 4
 17 367 66 416 126 416 c 4
 187 416 236 367 236 307 c 4
 236 247 187 198 126 198 c 4
 66 198 17 247 17 307 c 4
403 307 m 0
 403 367 452 416 512 416 c 0
 572 416 621 367 621 307 c 0
 621 247 572 198 512 198 c 0
 452 198 403 247 403 307 c 0
788 307 m 0
 788 367 837 416 898 416 c 0
 958 416 1007 367 1007 307 c 0
 1007 247 958 198 898 198 c 0
 837 198 788 247 788 307 c 0
EndSplineSet
Validated: 1
EndChar

StartChar: promote
Encoding: 5 59651 5
Width: 1028
VWidth: 0
Flags: W
HStem: 37 55<284.675 377.403>
VStem: 17 63<197.649 232 286.715 321 392 435.384> 208 65<105.53 177> 386 61<102.391 147> 944 60<82 532>
LayerCount: 3
Fore
SplineSet
993 601 m 0
 1003 593 1004 583 1004 573 c 2
 1004 50 l 2
 1004 36 999 30 993 25 c 0
 983 17 979 17 976 18 c 2
 447 147 l 0
 447 82 389 37 328 37 c 1
 263 37 208 92 208 157 c 2
 208 201 l 1
 80 232 l 1
 80 223 l 1
 80 208 62 196 48 196 c 0
 31 196 17 208 17 225 c 2
 17 409 l 2
 17 423 34 437 48 437 c 0
 66 437 80 426 80 409 c 2
 80 392 l 1
 966 607 l 2
 973 609 984 608 993 601 c 0
331 92 m 0
 351 92 386 99 386 150 c 1
 273 177 l 1
 273 167 273 157 273 147 c 0
 273 116 300 92 331 92 c 0
944 82 m 1
 944 532 l 1
 80 321 l 1
 80 290 l 1
 367 221 944 82 944 82 c 1
EndSplineSet
Validated: 1
EndChar

StartChar: video_off
Encoding: 6 59652 6
Width: 1024
VWidth: 0
Flags: W
HStem: 13 61<81 174 328 642> 539 61<81 642>
VStem: 20 61<74 539> 642 61<74 392> 707 64<232 355> 945 62<153 433>
LayerCount: 3
Fore
SplineSet
963 78 m 2
 727 184 l 2
 717 189 707 201 707 215 c 2
 707 382 l 2
 707 396 713 403 727 409 c 2
 963 515 l 2
 967 517 972 518 976 518 c 0
 992 518 1007 504 1007 484 c 2
 1007 106 l 2
 1007 88 992 75 976 75 c 0
 972 75 967 76 963 78 c 2
945 153 m 1
 945 433 l 1
 771 355 l 1
 771 232 l 1
 945 153 l 1
915 662 m 2
 703 454 l 1
 703 44 l 2
 703 27 689 13 672 13 c 2
 263 13 l 1
 263 13 153 -97 150 -99 c 6
 145 -103 138 -105 132 -105 c 0
 122 -105 112 -100 106 -92 c 0
 102 -87 100 -81 100 -75 c 0
 100 -66 105 -56 113 -48 c 2
 174 13 l 1
 51 13 l 2
 34 13 20 27 20 44 c 2
 20 570 l 2
 20 587 34 600 51 600 c 2
 676 600 l 2
 693 600 707 587 707 570 c 2
 707 546 l 1
 867 706 l 2
 872 711 880 714 887 714 c 0
 895 714 904 710 909 705 c 0
 917 697 922 688 922 679 c 0
 922 673 920 667 915 662 c 2
81 74 m 1
 236 74 l 1
 642 481 l 1
 642 539 l 1
 81 539 l 1
 81 74 l 1
642 74 m 1
 642 392 l 1
 328 74 l 1
 642 74 l 1
EndSplineSet
Validated: 1
EndChar

StartChar: user
Encoding: 7 59653 7
Width: 1024
VWidth: 0
HStem: -185 58<106 918> 106 65<311.625 705.46> 239 65<426.111 601.454> 737 65<426.361 598.899>
VStem: 41 65<-127 -52.0117> 249 58<426.077 609.719> 710 65<416.007 617.286>
LayerCount: 3
Fore
SplineSet
860 85 m 0
 939 30 983 -58 983 -154 c 3
 983 -171 969 -185 952 -185 c 2
 72 -185 l 2
 55 -185 41 -171 41 -154 c 0
 41 -58 78 25 164 85 c 28
 279 164 362 171 512 171 c 0
 662 171 775 143 860 85 c 0
106 -123 m 2
 106 -127 l 2
 918 -127 l 2
 908 -62 874 -7 823 31 c 0
 748 82 652 106 512 106 c 0
 372 106 276 85 201 34 c 0
 146 -4 113 -62 106 -123 c 2
512 239 m 0
 365 239 249 354 249 512 c 0
 249 663 361 802 512 802 c 0
 666 802 775 666 775 512 c 0
 775 359 655 239 512 239 c 0
307 515 m 0
 307 410 396 304 509 304 c 0
 622 304 710 389 710 515 c 0
 710 633 632 737 512 737 c 0
 398 737 307 627 307 515 c 0
EndSplineSet
Validated: 1
EndChar

StartChar: up_arrow
Encoding: 8 59654 8
Width: 1024
VWidth: 0
VStem: 304 79<-180.983 669>
LayerCount: 3
Fore
SplineSet
659 502 m 2
 667 494 671 484 671 473 c 0
 671 464 668 455 661 448 c 0
 653 440 643 435 632 435 c 0
 622 435 612 439 604 447 c 2
 383 669 l 1
 383 -147 l 2
 383 -167 363 -186 343 -186 c 0
 323 -186 304 -167 304 -147 c 2
 304 669 l 1
 82 447 l 1
 74 439 65 436 55 436 c 0
 45 436 35 440 27 447 c 0
 19 455 15 464 15 474 c 0
 15 484 19 494 27 502 c 2
 317 788 l 1
 325 796 334 801 344 801 c 0
 354 801 364 796 372 788 c 2
 659 502 l 2
EndSplineSet
Validated: 1
EndChar

StartChar: undecided
Encoding: 9 59655 9
Width: 1024
VWidth: 0
HStem: -188 65<375.061 648.939> 85 68<234.166 792.417> 365 130<312.816 411.184 612.816 711.184> 737 65<375.061 648.939>
VStem: 17 65<170.061 443.939> 297 130<380.816 479.184> 597 130<380.816 479.184> 942 65<170.061 443.939>
LayerCount: 3
Fore
SplineSet
512 802 m 0
 785 802 1007 580 1007 307 c 0
 1007 34 785 -188 512 -188 c 0
 239 -188 17 34 17 307 c 0
 17 580 239 802 512 802 c 0
512 -123 m 0
 751 -123 942 68 942 307 c 1
 942 546 751 737 512 737 c 0
 273 737 82 546 82 307 c 0
 82 68 273 -123 512 -123 c 0
297 430 m 0
 297 466 326 495 362 495 c 0
 398 495 427 466 427 430 c 0
 427 394 398 365 362 365 c 0
 326 365 297 394 297 430 c 0
597 430 m 0
 597 466 626 495 662 495 c 0
 698 495 727 466 727 430 c 0
 727 394 698 365 662 365 c 0
 626 365 597 394 597 430 c 0
795 120 m 0
 795 100 778 85 761 85 c 0
 595 85 429 85 263 85 c 1
 246 85 232 100 232 120 c 0
 232 140 246 153 263 153 c 0
 430 153 598 153 765 153 c 1
 782 153 795 137 795 120 c 0
EndSplineSet
Validated: 1
EndChar

StartChar: time
Encoding: 10 59656 10
Width: 1024
VWidth: 0
HStem: -188 68<375.802 648.198> 734 68<375.802 648.198>
VStem: 17 68<170.802 443.198> 478 65<324 578.074> 939 68<170.802 443.198>
LayerCount: 3
Fore
SplineSet
512 802 m 0
 785 802 1007 580 1007 307 c 0
 1007 34 785 -188 512 -188 c 0
 239 -188 17 34 17 307 c 0
 17 580 239 802 512 802 c 0
512 -120 m 0
 748 -120 939 71 939 307 c 0
 939 543 748 734 512 734 c 0
 276 734 85 543 85 307 c 0
 85 71 276 -120 512 -120 c 0
512 580 m 0
 529 580 543 568 543 546 c 2
 543 307 l 2
 543 297 539 290 532 283 c 2
 324 78 l 1
 317 71 308 68 300 68 c 0
 292 68 283 71 276 78 c 0
 269 85 266 94 266 102 c 0
 266 110 269 119 276 126 c 2
 478 324 l 1
 478 546 l 2
 478 566 492 580 512 580 c 0
EndSplineSet
Validated: 1
EndChar

StartChar: sad
Encoding: 11 59657 11
Width: 1024
VWidth: 0
HStem: -188 65<375.061 643.905> 160 65<410.246 607.166> 365 130<309.723 407.184 606.723 704.184> 737 65<375.061 643.905>
VStem: 17 65<170.061 443.939> 294 129<380.816 479.184> 591 129<380.816 479.184> 942 65<170.448 443.552>
LayerCount: 3
Fore
SplineSet
771 20 m 0
 766 17 761 16 756 16 c 0
 745 16 732 22 727 31 c 0
 681 108 597 160 509 160 c 0
 420 160 335 109 294 31 c 0
 290 24 277 18 265 18 c 0
 258 18 252 20 246 24 c 0
 239 28 233 39 233 50 c 0
 233 54 234 57 236 61 c 0
 291 160 396 225 509 225 c 0
 621 225 727 160 785 61 c 0
 787 58 789 53 789 48 c 0
 789 39 784 28 771 20 c 0
512 802 m 0
 785 802 1007 580 1007 307 c 0
 1007 34 785 -188 512 -188 c 0
 239 -188 17 34 17 307 c 0
 17 580 239 802 512 802 c 0
512 -123 m 0
 751 -123 942 70 942 307 c 24
 942 544 751 737 512 737 c 0
 273 737 82 546 82 307 c 0
 82 68 273 -123 512 -123 c 0
294 430 m 0
 294 466 323 495 358 495 c 0
 394 495 423 466 423 430 c 0
 423 394 394 365 358 365 c 0
 323 365 294 394 294 430 c 0
591 430 m 0
 591 466 620 495 655 495 c 0
 691 495 720 466 720 430 c 0
 720 394 691 365 655 365 c 0
 620 365 591 394 591 430 c 0
EndSplineSet
Validated: 1
EndChar

StartChar: right_arrow
Encoding: 12 59658 12
Width: 1024
VWidth: 0
LayerCount: 3
Fore
SplineSet
58 -205 m 0
 34 -205 17 -188 17 -164 c 0
 17 -154 20 -144 27 -137 c 2
 423 312 l 1
 27 751 l 2
 19 759 16 767 16 776 c 0
 16 787 22 800 31 809 c 0
 39 817 47 820 56 820 c 0
 67 820 80 814 89 805 c 2
 532 312 l 1
 89 -191 l 2
 79 -201 68 -205 58 -205 c 0
EndSplineSet
Validated: 1
EndChar

StartChar: presentation
Encoding: 13 59659 13
Width: 1024
VWidth: 0
HStem: 68 68<82 427 601 940> 563 68<82 940> 737 65<82 940>
VStem: 17 65<136 563 631 737> 481 65<-192.717 31> 940 70<136 563 631 737>
LayerCount: 3
Fore
SplineSet
973 802 m 2
 993 802 1007 788 1010 768 c 2
 1010 106 l 2
 1010 86 996 71 976 71 c 2
 601 71 l 1
 823 -130 l 2
 831 -137 840 -150 840 -163 c 0
 840 -169 838 -175 833 -181 c 0
 828 -187 819 -189 810 -189 c 0
 798 -189 786 -185 778 -178 c 2
 546 31 l 1
 546 -159 l 2
 546 -178 535 -195 514 -195 c 3
 497 -195 481 -179 481 -159 c 2
 481 31 l 1
 461 12 285 -143 245 -179 c 0
 239 -184 229 -188 218 -188 c 0
 209 -188 200 -186 195 -179 c 0
 191 -174 189 -168 189 -162 c 0
 189 -151 194 -139 205 -130 c 2
 427 68 l 1
 51 68 l 2
 31 68 17 82 17 102 c 2
 17 768 l 2
 17 788 31 802 51 802 c 2
 973 802 l 2
940 136 m 1
 940 563 l 1
 82 563 l 1
 82 136 l 1
 940 136 l 1
82 631 m 1
 940 631 l 1
 940 737 l 1
 82 737 l 1
 82 631 l 1
EndSplineSet
Validated: 1
EndChar

StartChar: listen
Encoding: 14 59660 14
Width: 1024
VWidth: 0
HStem: 663 57<394.862 630.698>
VStem: 14 55<53.9396 223.747> 215 51<-34 310> 758 51<-51 300> 955 52<40.4357 212.026>
LayerCount: 3
Fore
SplineSet
911 310 m 1
 973 266 1007 201 1007 130 c 0
 1007 7 908 -99 782 -99 c 1
 768 -99 758 -89 758 -75 c 2
 758 327 l 1
 758 341 768 351 782 351 c 0
 806 351 833 345 857 338 c 1
 847 508 717 645 546 662 c 0
 535 663 525 663 515 663 c 0
 337 663 183 528 167 348 c 1
 191 355 218 362 242 362 c 1
 256 362 266 351 266 338 c 2
 266 -65 l 1
 266 -79 256 -89 242 -89 c 0
 167 -89 99 -55 58 3 c 0
 28 44 14 91 14 137 c 0
 14 208 47 279 109 324 c 0
 116 543 294 717 512 720 c 0
 734 717 911 536 911 310 c 1
215 -34 m 2
 215 310 l 2
 143 300 82 242 72 167 c 0
 70 157 69 147 69 137 c 0
 69 56 129 -19 215 -34 c 2
809 -51 m 2
 884 -34 942 20 952 99 c 0
 954 109 955 119 955 129 c 0
 955 210 895 285 809 300 c 2
 809 -51 l 2
EndSplineSet
Validated: 1
EndChar

StartChar: left_arrow
Encoding: 15 59661 15
Width: 1024
VWidth: 0
LayerCount: 3
Fore
SplineSet
481 -188 m 0
 471 -188 461 -184 451 -174 c 2
 24 312 l 1
 454 792 l 2
 461 801 472 805 483 805 c 0
 493 805 504 802 512 795 c 0
 521 788 525 777 525 766 c 0
 525 756 522 745 515 737 c 2
 130 312 l 1
 512 -123 l 2
 519 -131 522 -141 522 -150 c 0
 522 -160 518 -171 509 -178 c 0
 502 -185 491 -188 481 -188 c 0
EndSplineSet
Validated: 1
EndChar

StartChar: happy
Encoding: 16 59662 16
Width: 1024
VWidth: 0
HStem: -188 65<375.061 648.939> 13 65<407.574 605.869> 365 130<309.386 407.754 606.386 704.754> 737 65<375.061 648.939>
VStem: 17 65<170.061 443.939> 294 130<381.85 478.15> 591 130<381.85 478.15> 942 65<170.061 443.939>
LayerCount: 3
Fore
SplineSet
512 802 m 0
 785 802 1007 580 1007 307 c 0
 1007 34 785 -188 512 -188 c 0
 239 -188 17 34 17 307 c 0
 17 580 239 802 512 802 c 0
512 -123 m 0
 751 -123 942 68 942 307 c 1
 942 546 751 737 512 737 c 0
 273 737 82 546 82 307 c 0
 82 68 273 -123 512 -123 c 0
294 430 m 0
 294 466 322 495 358 495 c 0
 394 495 424 466 424 430 c 0
 424 394 394 365 358 365 c 0
 322 365 294 394 294 430 c 0
591 430 m 0
 591 466 619 495 655 495 c 0
 691 495 721 466 721 430 c 0
 721 394 691 365 655 365 c 0
 619 365 591 394 591 430 c 0
509 13 m 1
 505 13 l 2
 392 13 287 78 232 177 c 1
 230 181 228 187 228 193 c 0
 228 204 233 217 245 222 c 0
 250 224 254 225 259 225 c 0
 271 225 284 219 290 208 c 1
 334 129 416 78 505 78 c 0
 597 78 680 129 724 208 c 1
 728 217 745 225 759 225 c 0
 764 225 768 224 772 222 c 0
 781 216 786 204 786 193 c 0
 786 187 785 182 782 177 c 1
 724 78 622 13 509 13 c 1
EndSplineSet
Validated: 1
EndChar

StartChar: hand
Encoding: 17 59663 17
Width: 1024
VWidth: 0
HStem: -185 62<432.666 776.576> 331 68<155.176 201.445> 525 65<792.379 856.597> 651 63<376.137 439.17 649.94 718.84> 737 65<508.51 575.047>
VStem: 96 59<264.796 330.988> 307 58<280 637.526> 444 61<342.735 645.098 706 731.567> 580 61<342.41 641.83> 724 61<277.42 521.277 583 643.199> 860 72<-37.1174 520.199>
LayerCount: 3
Fore
SplineSet
829 590 m 0
 884 590 932 543 932 488 c 1
 932 49 l 2
 932 -81 826 -185 696 -185 c 2
 505 -185 l 2
 409 -185 331 -113 290 -48 c 0
 215 71 113 246 113 246 c 2
 101 273 96 296 96 314 c 0
 96 342 107 360 119 372 c 0
 136 392 161 399 188 399 c 0
 219 399 241 373 259 348 c 2
 307 280 l 1
 307 601 l 2
 307 632 317 662 341 686 c 0
 359 704 383 714 408 714 c 0
 421 714 434 712 447 706 c 1
 447 757 495 802 550 802 c 0
 605 802 652 761 652 706 c 1
 662 709 675 713 689 713 c 0
 744 713 792 666 792 611 c 2
 792 583 l 2
 802 586 815 590 829 590 c 0
860 49 m 1
 860 488 l 2
 860 508 843 525 823 525 c 0
 803 525 785 508 785 488 c 2
 785 310 l 2
 785 292 772 276 754 276 c 3
 737 276 724 293 724 310 c 2
 724 611 l 2
 724 631 706 648 686 648 c 0
 666 648 641 632 641 611 c 2
 641 368 l 2
 641 352 626 341 612 341 c 3
 595 341 580 353 580 368 c 2
 580 700 l 2
 580 720 563 734 543 737 c 0
 523 737 505 720 505 700 c 2
 505 368 l 2
 505 352 492 341 478 341 c 3
 461 341 444 351 444 368 c 2
 444 611 l 2
 444 628 433 641 416 648 c 0
 413 650 410 651 406 651 c 0
 397 651 386 645 379 638 c 0
 369 628 365 611 365 597 c 2
 365 191 l 2
 365 177 358 167 348 160 c 0
 342 156 334 154 327 154 c 0
 315 154 303 159 297 170 c 2
 201 310 l 2
 194 320 188 331 177 331 c 3
 162 331 155 323 155 310 c 0
 155 300 159 287 167 273 c 1
 167 273 266 102 345 -17 c 0
 376 -65 437 -123 505 -123 c 2
 696 -123 l 2
 792 -123 860 -47 860 49 c 1
EndSplineSet
Validated: 1
EndChar

StartChar: group_chat
Encoding: 18 59664 18
Width: 1024
VWidth: 0
Flags: W
HStem: -103 55<681.884 813.983> 174 65<331 555.33> 225 51<833 868.37> 734 68<283.332 552.207>
VStem: 17 68<392.518 569.153> 546 55<23.9915 95> 748 61<398.095 570.005> 956 55<23.6115 154.19>
LayerCount: 3
Fore
SplineSet
956 -137 m 1xbf
 958 -145 960 -154 960 -162 c 0
 960 -170 958 -177 952 -181 c 0
 947 -185 943 -186 938 -186 c 0
 929 -186 919 -180 908 -171 c 0
 875 -146 843 -123 812 -99 c 1
 802 -102 788 -103 778 -103 c 0
 648 -103 546 -17 546 89 c 2
 546 95 l 1
 601 109 l 1
 601 89 l 2
 601 14 679 -48 778 -48 c 0
 793 -48 805 -44 817 -44 c 0
 824 -44 832 -46 840 -51 c 1
 884 -86 l 1
 874 -48 l 2
 874 -34 881 -24 891 -17 c 0
 929 7 956 46 956 90 c 0
 956 166 885 210 795 225 c 1
 833 276 l 1
 836 276 l 2
 938 256 1011 179 1011 90 c 0
 1011 32 980 -20 932 -51 c 1
 940 -80 949 -108 956 -137 c 1xbf
416 802 m 0
 634 802 809 658 809 484 c 0
 809 310 628 167 410 167 c 1
 406 167 l 2
 382 167 359 171 335 174 c 2
 331 174 l 1xdf
 150 37 l 2
 147 34 140 31 137 31 c 3
 127 31 119 38 119 48 c 2
 174 218 l 2
 174 221 170 229 167 232 c 0
 78 283 17 379 17 481 c 0
 17 658 194 802 416 802 c 0
416 235 m 0
 597 235 748 347 748 484 c 0
 748 621 600 734 416 734 c 0
 232 734 85 621 85 484 c 0
 85 405 133 331 205 293 c 0
 232 279 246 253 246 222 c 1
 244 208 241 195 236 184 c 1
 290 222 l 2
 304 232 321 239 338 239 c 0
 358 239 406 235 416 235 c 0
EndSplineSet
Validated: 1
EndChar

StartChar: confused
Encoding: 19 59665 19
Width: 1024
VWidth: 0
HStem: -188 68<375.802 648.198> 48 61<563.646 699.2> 130 61<334.64 482.76> 365 130<309.386 407.754 606.386 704.754> 734 68<375.802 648.198>
VStem: 17 68<170.802 443.198> 294 130<381.85 478.15> 591 130<381.85 478.15> 939 68<170.802 443.198>
LayerCount: 3
Fore
SplineSet
512 802 m 0
 785 802 1007 580 1007 307 c 0
 1007 34 785 -188 512 -188 c 0
 239 -188 17 34 17 307 c 0
 17 580 239 802 512 802 c 0
512 -120 m 1
 748 -120 939 71 939 307 c 0
 939 543 748 734 512 734 c 0
 276 734 85 543 85 307 c 0
 85 71 276 -120 512 -120 c 1
294 430 m 0
 294 466 322 495 358 495 c 0
 394 495 424 466 424 430 c 0
 424 394 394 365 358 365 c 0
 322 365 294 394 294 430 c 0
591 430 m 0
 591 466 619 495 655 495 c 0
 691 495 721 466 721 430 c 0
 721 394 691 365 655 365 c 0
 619 365 591 394 591 430 c 0
632 48 m 3
 582 48 526 78 481 109 c 0
 456 126 433 130 406 130 c 3
 368 130 331 109 304 85 c 0
 297 80 288 78 280 78 c 0
 272 78 264 80 259 85 c 0
 254 92 252 101 252 109 c 0
 252 117 254 125 259 130 c 0
 300 168 351 191 406 191 c 3
 461 191 511 169 556 136 c 0
 576 122 607 109 635 109 c 3
 669 109 701 126 721 153 c 0
 728 160 739 167 749 167 c 0
 755 167 760 165 765 160 c 0
 772 153 776 144 776 135 c 0
 776 127 773 119 768 112 c 0
 732 68 689 48 632 48 c 3
EndSplineSet
Validated: 1
EndChar

StartChar: close
Encoding: 20 59666 20
Width: 1024
VWidth: 0
LayerCount: 3
Fore
SplineSet
573 307 m 1
 969 -89 l 2
 977 -97 982 -109 982 -120 c 0
 982 -131 977 -142 969 -150 c 0
 961 -158 949 -163 938 -163 c 0
 927 -163 916 -158 908 -150 c 2
 512 246 l 1
 116 -150 l 2
 108 -158 97 -163 86 -163 c 0
 75 -163 63 -158 55 -150 c 0
 47 -142 42 -131 42 -120 c 0
 42 -109 47 -97 55 -89 c 2
 451 307 l 1
 55 703 l 2
 48 711 44 720 44 730 c 0
 44 740 48 750 55 758 c 0
 65 768 77 773 89 773 c 0
 98 773 107 770 116 764 c 2
 512 368 l 1
 908 764 l 2
 916 772 927 777 938 777 c 0
 949 777 961 772 969 764 c 0
 977 756 982 745 982 734 c 0
 982 723 977 711 969 703 c 2
 573 307 l 1
EndSplineSet
Validated: 1
EndChar

StartChar: clear_status
Encoding: 21 59667 21
Width: 1024
VWidth: 0
HStem: -188 58<710.722 865.484> -130 68<92 550> 143 68<275.81 574.719> 170 65<710.722 866.074> 276 58<384.101 553.576> 740 65<385.731 549.173>
VStem: 218 66<436.689 628.911> 577 61<-57.7343 96.871> 655 58<439.23 623.21> 939 61<-55.3472 97.0605>
LayerCount: 3
Fore
SplineSet
92 -62 m 1x6fc0
 550 -62 l 1
 587 -130 l 1
 55 -130 l 2
 35 -130 20 -116 20 -96 c 0
 20 127 223 211 468 211 c 0
 518 211 562 211 611 201 c 1
 567 140 l 17
 536 140 502 143 468 143 c 0
 275 143 112 95 92 -62 c 1x6fc0
469 276 m 0
 332 276 218 392 218 532 c 24
 218 677 323 805 469 805 c 0
 610 805 713 675 713 532 c 24
 713 394 606 276 469 276 c 0
284 532 m 3
 284 416 367 334 469 334 c 0
 571 334 655 416 655 532 c 3
 655 630 579 740 469 740 c 0
 360 740 284 640 284 532 c 3
829 24 m 1
 870 -17 l 2
 876 -23 879 -31 879 -40 c 0
 879 -48 877 -55 870 -62 c 0
 864 -68 855 -71 848 -71 c 0
 839 -71 831 -67 826 -62 c 2
 785 -21 l 1
 751 -55 l 2
 744 -62 735 -66 727 -66 c 0
 719 -66 710 -62 703 -55 c 0
 697 -49 695 -43 695 -36 c 0
 695 -26 700 -17 707 -10 c 2
 741 24 l 1
 707 58 l 1
 701 65 698 73 698 81 c 0
 698 89 701 97 707 102 c 0
 713 107 722 110 730 110 c 0
 738 110 746 107 751 102 c 2
 785 68 l 1
 823 106 l 2
 828 111 837 114 846 114 c 0
 854 114 863 111 867 106 c 0
 872 100 874 91 874 83 c 0
 874 75 872 66 867 61 c 2
 829 24 l 1
788 -188 m 0x9fc0
 672 -188 577 -92 577 24 c 0
 577 140 672 235 788 235 c 0
 904 235 1000 140 1000 24 c 0
 1000 -92 904 -188 788 -188 c 0x9fc0
788 170 m 0
 706 170 638 102 638 20 c 0
 638 -62 706 -130 788 -130 c 0
 870 -130 939 -62 939 20 c 0
 939 94 887 152 820 167 c 0
 810 169 799 170 788 170 c 0
EndSplineSet
Validated: 1
EndChar

StartChar: circle
Encoding: 22 59668 22
Width: 1024
VWidth: 0
HStem: -185 61<381.254 642.661> 737 61<381.254 642.661>
VStem: 20 61<176.254 437.661> 942 61<176.254 437.661>
LayerCount: 3
Fore
SplineSet
512 -185 m 0
 242 -185 20 37 20 307 c 0
 20 577 242 798 512 798 c 0
 782 798 1003 577 1003 307 c 0
 1003 37 782 -185 512 -185 c 0
512 737 m 0
 276 737 81 543 81 307 c 0
 81 71 276 -124 512 -124 c 0
 748 -124 942 71 942 307 c 0
 942 543 748 737 512 737 c 0
EndSplineSet
Validated: 1
EndChar

StartChar: substract
Encoding: 23 59669 23
Width: 1024
VWidth: 0
HStem: -185 61<381.254 642.661> 276 65<269.978 758.022> 737 61<381.254 642.661>
VStem: 20 61<176.254 437.661> 942 61<176.254 437.661>
LayerCount: 3
Fore
SplineSet
727 341 m 2
 749 341 760 325 760 309 c 0
 760 293 748 276 724 276 c 2
 304 276 l 2
 280 276 268 292 268 308 c 0
 268 324 280 341 304 341 c 2
 727 341 l 2
512 -185 m 0
 242 -185 20 37 20 307 c 0
 20 577 242 798 512 798 c 0
 782 798 1003 577 1003 307 c 0
 1003 37 782 -185 512 -185 c 0
512 737 m 0
 276 737 81 543 81 307 c 0
 81 71 276 -124 512 -124 c 0
 748 -124 942 71 942 307 c 0
 942 543 748 737 512 737 c 0
EndSplineSet
Validated: 1
EndChar

StartChar: circle_close
Encoding: 24 59670 24
Width: 1024
VWidth: 0
HStem: -185 61<381.254 642.661> 737 61<381.254 642.661>
VStem: 20 61<176.254 437.661> 942 61<176.254 437.661>
LayerCount: 3
Fore
SplineSet
556 312 m 1
 689 181 l 2
 696 174 698 167 698 160 c 0
 698 143 682 127 665 127 c 0
 658 127 650 129 643 136 c 2
 510 266 l 1
 389 136 l 2
 382 129 374 126 367 126 c 0
 350 126 336 142 336 159 c 0
 336 166 338 174 345 181 c 2
 464 312 l 1
 345 435 l 2
 340 440 338 447 338 453 c 0
 338 470 355 487 372 487 c 0
 378 487 384 484 389 479 c 2
 510 355 l 1
 633 487 l 2
 638 492 644 495 650 495 c 0
 666 495 683 477 683 460 c 0
 683 454 681 448 676 443 c 2
 556 312 l 1
512 -185 m 0
 242 -185 20 37 20 307 c 0
 20 577 242 798 512 798 c 0
 782 798 1003 577 1003 307 c 0
 1003 37 782 -185 512 -185 c 0
512 737 m 0
 276 737 81 543 81 307 c 0
 81 71 276 -124 512 -124 c 0
 748 -124 942 71 942 307 c 0
 942 543 748 737 512 737 c 0
EndSplineSet
Validated: 1
EndChar

StartChar: add
Encoding: 25 59671 25
Width: 1024
VWidth: 0
HStem: -185 61<381.254 642.661> 269 65<271.952 471 536 754.365> 737 61<381.254 642.661>
VStem: 20 61<176.254 437.661> 471 65<63.8127 269 334 552.035> 942 61<176.254 437.661>
LayerCount: 3
Fore
SplineSet
727 334 m 2
 746 334 756 318 756 302 c 0
 756 286 746 269 727 269 c 2
 536 269 l 1
 536 95 l 2
 536 73 519 62 503 62 c 0
 487 62 471 73 471 95 c 2
 471 269 l 1
 304 269 l 2
 281 269 270 285 270 301 c 0
 270 317 282 334 304 334 c 2
 471 334 l 1
 471 519 l 2
 471 542 487 554 503 554 c 0
 519 554 536 542 536 519 c 2
 536 334 l 1
 727 334 l 2
512 -185 m 0
 242 -185 20 37 20 307 c 0
 20 577 242 798 512 798 c 0
 782 798 1003 577 1003 307 c 0
 1003 37 782 -185 512 -185 c 0
512 737 m 0
 276 737 81 543 81 307 c 0
 81 71 276 -124 512 -124 c 0
 748 -124 942 71 942 307 c 0
 942 543 748 737 512 737 c 0
EndSplineSet
Validated: 1
EndChar

StartChar: check
Encoding: 26 59672 26
Width: 1024
VWidth: 0
HStem: -185 62<381.3 642.7> 737 62<381.3 642.7>
VStem: 20 62<176.3 437.7> 942 62<176.3 437.7>
LayerCount: 3
Fore
SplineSet
689 481 m 2
 695 488 703 491 711 491 c 0
 729 491 748 474 748 457 c 0
 748 451 746 445 741 440 c 2
 474 140 l 1
 468 133 460 129 451 129 c 0
 444 129 436 131 430 136 c 2
 294 256 l 2
 284 265 279 275 279 284 c 0
 279 300 293 314 310 314 c 0
 318 314 327 311 335 304 c 2
 447 205 l 1
 689 481 l 2
512 -185 m 0
 242 -185 20 37 20 307 c 0
 20 577 242 799 512 799 c 0
 782 799 1004 577 1004 307 c 0
 1004 37 782 -185 512 -185 c 0
512 737 m 0
 276 737 82 543 82 307 c 0
 82 71 276 -123 512 -123 c 0
 748 -123 942 71 942 307 c 0
 942 543 748 737 512 737 c 0
EndSplineSet
Validated: 1
EndChar

StartChar: chat
Encoding: 27 59673 27
Width: 1024
VWidth: 0
HStem: -21 75<414.452 664.339> 737 68<359.342 664.658>
VStem: 0 68<290.402 496.342> 956 68<295.741 499.243>
LayerCount: 3
Fore
SplineSet
512 737 m 0
 266 737 68 583 68 392 c 0
 68 290 130 195 232 130 c 0
 254 115 274 89 274 60 c 0
 274 57 273 54 273 51 c 0
 272 44 270 34 270 34 c 1
 246 -41 l 1
 362 48 l 2
 376 58 396 65 413 65 c 0
 444 65 474 54 505 54 c 2
 512 54 l 1
 758 54 956 208 956 396 c 0
 956 584 758 737 512 737 c 0
512 805 m 1
 795 805 1024 614 1024 389 c 0
 1024 164 795 -21 512 -21 c 1
 505 -21 l 2
 474 -21 444 -17 413 -10 c 1
 336 -69 255 -127 177 -185 c 0
 174 -188 167 -191 160 -191 c 1
 146 -191 137 -181 137 -167 c 2
 205 51 l 2
 208 60 199 72 195 75 c 0
 77 152 0 266 0 396 c 0
 0 621 229 805 512 805 c 1
EndSplineSet
Validated: 1
EndChar

StartChar: audio_on
Encoding: 28 59674 28
Width: 1024
VWidth: 0
HStem: -94 68<687.16 799.989> 188 68<673.969 788.505> 640 68<226.044 336.536>
VStem: 112 68<482.297 594.079> 392 70<471.633 584.579> 845 67<19.4999 131.943>
LayerCount: 3
Fore
SplineSet
742 -94 m 0
 717 -94 680 -83 659 -68 c 0
 486 47 252 281 137 454 c 0
 123 475 112 513 112 538 c 0
 112 573 132 621 156 646 c 2
 174 664 l 2
 199 688 247 708 282 708 c 0
 317 708 365 688 390 664 c 2
 418 636 l 2
 443 611 462 563 462 528 c 0
 462 503 451 465 437 444 c 0
 491 380 585 286 649 232 c 1
 670 246 707 256 733 256 c 0
 767 256 815 236 840 212 c 2
 868 184 l 2
 892 159 912 111 912 76 c 0
 912 41 892 -7 868 -32 c 2
 850 -50 l 2
 825 -74 777 -94 742 -94 c 0
281 640 m 0
 262 640 235 627 222 614 c 2
 205 597 l 2
 191 583 180 557 180 538 c 0
 180 524 186 504 194 492 c 0
 304 325 530 99 697 -12 c 0
 709 -20 729 -26 743 -26 c 0
 762 -26 789 -15 803 -1 c 2
 821 17 l 2
 834 30 845 57 845 76 c 0
 845 95 833 123 819 136 c 2
 791 164 l 2
 777 177 751 188 732 188 c 0
 713 188 686 177 672 164 c 0
 667 159 656 154 648 154 c 0
 641 154 632 158 626 162 c 0
 547 227 430 344 365 423 c 0
 361 429 357 438 357 445 c 0
 357 453 362 464 367 469 c 0
 381 481 392 509 392 529 c 0
 392 548 381 574 367 588 c 2
 341 614 l 2
 328 628 301 640 281 640 c 0
EndSplineSet
Validated: 1
EndChar

StartChar: audio_off
Encoding: 29 59675 29
Width: 1024
VWidth: 0
HStem: -93 67<684.531 798.399> 189 68<673.951 788.675> 639 69<225.258 338.077>
VStem: 111 68<486.161 592.611> 394 66<469.976 583.343> 844 69<20.3389 133.161>
LayerCount: 3
Fore
SplineSet
841 212 m 2
 869 185 l 2
 893 160 913 112 913 77 c 0
 913 42 893 -6 869 -31 c 2
 851 -49 l 2
 826 -73 777 -93 742 -93 c 0
 717 -93 680 -82 659 -68 c 0
 582 -17 465 78 398 143 c 2
 171 -84 l 2
 165 -92 153 -98 144 -98 c 0
 125 -98 109 -82 109 -63 c 0
 109 -55 115 -43 122 -37 c 2
 350 190 l 2
 284 257 189 376 137 454 c 0
 122 476 111 514 111 539 c 0
 111 573 130 621 154 646 c 2
 172 663 l 2
 197 688 245 708 280 708 c 0
 315 708 363 688 388 663 c 2
 416 635 l 2
 441 611 460 562 460 527 c 0
 460 502 449 465 436 444 c 0
 461 415 488 386 515 357 c 2
 857 699 l 2
 860 702 870 704 875 704 c 0
 894 704 909 689 909 670 c 0
 909 664 908 656 904 651 c 2
 563 310 l 2
 591 283 619 257 649 232 c 0
 670 246 707 257 732 257 c 0
 767 257 816 237 841 212 c 2
192 492 m 2
 193 492 l 2
 243 417 334 304 397 239 c 2
 469 308 l 2
 433 345 399 382 367 421 c 4
 363 427 359 436 359 443 c 0
 359 451 364 462 369 467 c 0
 383 481 394 507 394 527 c 0
 394 546 383 573 369 586 c 2
 341 614 l 2
 328 628 301 639 281 639 c 0
 262 639 235 628 222 614 c 2
 205 597 l 2
 191 584 179 557 179 537 c 0
 179 524 185 503 192 492 c 2
819 17 m 2
 833 30 844 57 844 76 c 0
 844 96 833 123 819 136 c 2
 791 165 l 2
 777 178 751 189 732 189 c 0
 713 189 686 178 672 165 c 0
 667 159 656 155 648 155 c 0
 641 155 632 158 626 163 c 0
 588 195 551 229 514 263 c 2
 443 192 l 2
 508 129 621 38 696 -12 c 0
 707 -20 728 -26 742 -26 c 0
 761 -26 788 -15 801 -1 c 2
 819 17 l 2
EndSplineSet
Validated: 1
EndChar

StartChar: line_tool
Encoding: 30 59676 30
Width: 1024
VWidth: 0
HStem: -188 65<279.978 358.952> -34 65<280.269 358.079> 583 65<665.321 743.615> 737 65<665.248 743.816>
VStem: 212 61<-115.132 -41.1899> 365 65<-116.952 -40.5044> 594 65<654.613 730.952> 751 61<656.462 729.132>
LayerCount: 3
Fore
SplineSet
403 14 m 1
 345 43 l 1
 614 581 l 1
 672 552 l 1
 403 14 l 1
703 802 m 24
 763 802 812 754 812 693 c 0
 812 632 764 583 703 583 c 0
 642 583 594 632 594 693 c 0
 594 754 643 802 703 802 c 24
703 648 m 24
 729 648 751 669 751 693 c 0
 751 717 730 737 703 737 c 0
 679 737 659 717 659 693 c 0
 659 669 679 648 703 648 c 24
321 31 m 1
 379 31 430 -18 430 -79 c 0
 430 -140 382 -188 321 -188 c 0
 260 -188 212 -140 212 -79 c 0
 212 -18 260 31 321 31 c 1
321 -123 m 0
 345 -123 365 -103 365 -79 c 24
 365 -54 345 -34 321 -34 c 0
 294 -34 273 -55 273 -79 c 0
 273 -103 294 -123 321 -123 c 0
EndSplineSet
Validated: 1
EndChar

StartChar: circle_tool
Encoding: 31 59677 31
Width: 1024
VWidth: 0
Flags: W
HStem: -188 65<466.113 543.592> -34 61<467.542 542.904> 194 62<88.742 163.741 861.771 934.027> 348 61<89.6555 162.345 859.251 935.106> 587 65<466.113 543.592> 740 61<467.259 543.187>
VStem: 20 61<263.772 337.258> 171 61<263.105 337.258> 399 61<-116.174 -41.2078 658.826 733.359> 550 65<-116.523 -41.2078 658.477 733.359> 792 61<266.742 340.833> 942 61<264.606 341.106>
LayerCount: 3
Fore
SplineSet
628 -28 m 17
 727 6 806 82 840 181 c 9
 901 157 l 17
 857 41 765 -48 649 -89 c 9
 628 -28 l 17
113 444 m 1
 154 560 245 656 358 700 c 9
 382 638 l 1
 283 600 206 519 172 420 c 9
 113 444 l 1
847 420 m 17
 813 526 730 604 631 642 c 9
 652 703 l 17
 771 659 867 563 908 440 c 9
 847 420 l 17
177 181 m 17
 215 85 286 10 382 -24 c 9
 358 -86 l 17
 245 -45 157 44 116 157 c 9
 177 181 l 17
505 801 m 24
 565 801 615 754 615 693 c 0
 615 635 567 587 509 587 c 0
 448 587 399 635 399 693 c 0
 399 754 446 801 505 801 c 24
505 652 m 0
 529 652 550 669 550 696 c 0
 550 720 529 740 505 740 c 0
 481 740 460 720 460 696 c 0
 460 672 481 652 505 652 c 0
505 27 m 24
 565 27 615 -21 615 -82 c 0
 615 -140 567 -188 509 -188 c 0
 448 -188 399 -140 399 -82 c 0
 399 -21 446 27 505 27 c 24
505 -123 m 0
 529 -123 550 -106 550 -79 c 0
 550 -55 529 -34 505 -34 c 0
 481 -34 460 -55 460 -79 c 0
 460 -103 481 -123 505 -123 c 0
898 409 m 0
 956 409 1003 362 1003 304 c 24
 1003 245 956 198 898 198 c 0
 840 198 792 246 792 304 c 0
 792 362 840 409 898 409 c 0
898 259 m 0
 899 259 901 259 902 259 c 0
 924 259 942 281 942 304 c 0
 942 328 922 348 898 348 c 0
 874 348 853 328 853 304 c 0
 853 280 874 259 898 259 c 0
232 300 m 0
 232 242 185 194 126 194 c 24
 68 194 20 242 20 300 c 0
 20 358 68 406 126 406 c 0
 184 406 232 358 232 300 c 0
81 300 m 0
 81 276 102 259 126 256 c 0
 150 256 171 276 171 300 c 0
 171 324 150 345 126 345 c 0
 102 345 81 324 81 300 c 0
EndSplineSet
Validated: 1
EndChar

StartChar: triangle_tool
Encoding: 32 59678 32
Width: 1024
VWidth: 0
HStem: -188 65<85.1947 164.279 859.613 935.952> -113 65<246 775> -34 65<85.1308 164.412 859.896 935.479> 583 65<474.321 549.679> 737 65<474.048 549.952>
VStem: 17 61<-114.97 -38.4318> 171 65<-115.415 -40.2054> 403 65<654.504 730.752> 556 65<654.613 730.952> 788 65<-116.679 -40.896> 942 65<-116.952 -40.5044>
LayerCount: 3
Fore
SplineSet
210 24 m 1
 152 53 l 1
 421 590 l 1
 479 561 l 1
 210 24 l 1
246 -113 m 1
 246 -48 l 1
 775 -48 l 1
 775 -113 l 1
 246 -113 l 1
812 30 m 1
 546 561 l 1
 604 590 l 1
 870 59 l 1
 812 30 l 1
512 583 m 0
 451 583 403 632 403 693 c 24
 403 753 451 802 512 802 c 0
 573 802 621 754 621 693 c 0
 621 632 573 583 512 583 c 0
512 737 m 0
 488 737 468 717 468 693 c 24
 468 668 488 648 512 648 c 0
 536 648 556 669 556 693 c 0
 556 717 536 737 512 737 c 0
898 31 m 24
 958 31 1007 -18 1007 -79 c 0
 1007 -140 959 -188 898 -188 c 0
 837 -188 788 -140 788 -79 c 0
 788 -18 837 31 898 31 c 24
898 -123 m 0
 922 -123 942 -103 942 -79 c 24
 942 -54 922 -34 898 -34 c 0
 874 -34 853 -55 853 -79 c 0
 853 -103 874 -123 898 -123 c 0
126 31 m 24
 187 31 236 -18 236 -79 c 0
 236 -140 187 -188 126 -188 c 0
 65 -188 17 -140 17 -79 c 0
 17 -18 66 31 126 31 c 24
126 -123 m 0
 149 -123 171 -103 171 -79 c 0
 171 -53 148 -31 123 -31 c 0
 99 -31 78 -54 78 -79 c 0
 78 -104 101 -123 126 -123 c 0
EndSplineSet
Validated: 1
EndChar

StartChar: rectangle_tool
Encoding: 33 59679 33
Width: 1024
VWidth: 0
HStem: -188 65<89.2932 169.01 854.99 934.707> -109 64<290 734> -28 65<88.9906 169.302 854.698 935.009> 577 65<88.9906 169.302 854.698 935.126> 655 65<290 734> 737 65<89.2932 169.01 854.99 934.707>
VStem: 17 65<-115.707 -35.9896 649.99 729.707> 99 65<68 549> 177 65<-116.009 -35.6976 649.698 730.009> 782 65<-116.009 -35.6976 649.698 730.009> 864 64<68 549> 942 65<-115.707 -35.9896 649.698 729.707>
LayerCount: 3
Fore
SplineSet
864 68 m 1
 864 549 l 1
 928 549 l 1
 928 68 l 1
 864 68 l 1
290 655 m 1
 290 720 l 1
 734 720 l 1
 734 655 l 1
 290 655 l 1
99 68 m 1
 99 549 l 1
 164 549 l 1
 164 68 l 1
 99 68 l 1
290 -109 m 1
 290 -45 l 1
 734 -45 l 1
 734 -109 l 1
 290 -109 l 1
130 802 m 0
 191 802 242 750 242 689 c 0
 242 628 191 577 130 577 c 0
 69 577 17 628 17 689 c 0
 17 750 69 802 130 802 c 0
130 642 m 0
 157 642 177 662 177 689 c 0
 177 716 157 737 130 737 c 0
 103 737 82 716 82 689 c 0
 82 662 103 642 130 642 c 0
894 37 m 0
 955 37 1007 -14 1007 -75 c 0
 1007 -136 955 -188 894 -188 c 0
 833 -188 782 -136 782 -75 c 0
 782 -14 833 37 894 37 c 0
894 -123 m 0
 921 -123 942 -102 942 -75 c 0
 942 -48 921 -28 894 -28 c 0
 867 -28 847 -48 847 -75 c 0
 847 -102 867 -123 894 -123 c 0
130 37 m 0
 191 37 242 -14 242 -75 c 0
 242 -136 191 -188 130 -188 c 0
 69 -188 17 -136 17 -75 c 0
 17 -14 69 37 130 37 c 0
130 -123 m 0
 157 -123 177 -102 177 -75 c 0
 177 -48 157 -28 130 -28 c 0
 103 -28 82 -48 82 -75 c 0
 82 -102 103 -123 130 -123 c 0
894 802 m 0
 955 802 1007 750 1007 689 c 0
 1007 628 955 577 894 577 c 0
 833 577 782 628 782 689 c 0
 782 750 833 802 894 802 c 0
894 642 m 0
 922 642 942 662 942 689 c 0
 942 716 921 737 894 737 c 0
 867 737 847 716 847 689 c 0
 847 662 867 642 894 642 c 0
EndSplineSet
Validated: 1
EndChar

StartChar: text_tool
Encoding: 34 59680 34
Width: 1024
VWidth: 0
HStem: -185 27<300 388.482 652.269 734> 740 61<208.173 444 587 815.819>
VStem: 82 38<549 625.581> 444 143<-124.611 740> 908 27<546 598.599>
LayerCount: 3
Fore
SplineSet
935 801 m 1
 935 546 l 1
 908 546 l 2
 891 628 867 679 840 703 c 0
 813 727 754 740 669 740 c 2
 587 740 l 1
 587 -24 l 2
 587 -82 597 -116 614 -130 c 0
 652 -147 693 -158 734 -158 c 2
 734 -185 l 1
 300 -185 l 1
 300 -158 l 1
 365 -158 403 -143 420 -126 c 0
 437 -112 444 -72 444 -7 c 2
 444 740 l 1
 358 740 l 2
 276 740 219 730 188 706 c 0
 157 682 134 631 120 549 c 2
 82 549 l 1
 89 801 l 1
 935 801 l 1
EndSplineSet
Validated: 1
EndChar

StartChar: plus
Encoding: 35 59681 35
Width: 1024
VWidth: 0
HStem: 266 79<22.2487 468 546 996.751>
VStem: 468 75<-177.277 266 345 790.004>
LayerCount: 3
Fore
SplineSet
962 345 m 6
 982 345 1002 326 1002 303 c 4
 1002 283 983 266 963 266 c 6
 543 266 l 5
 543 -144 l 6
 543 -164 525 -181 505 -181 c 4
 485 -181 468 -164 468 -144 c 6
 468 269 l 5
 55 269 l 6
 35 269 17 287 17 307 c 4
 17 327 35 345 55 345 c 6
 471 345 l 5
 471 758 l 6
 471 778 489 795 509 795 c 4
 529 795 546 778 546 758 c 6
 546 345 l 5
 962 345 l 6
EndSplineSet
Validated: 1
EndChar

StartChar: fit_to_width
Encoding: 36 59682 36
Width: 1024
VWidth: 0
HStem: 276 61<130 894>
LayerCount: 3
Fore
SplineSet
993 331 m 2
 1000 324 1004 316 1004 308 c 0
 1004 300 1000 292 993 287 c 2
 864 164 l 2
 858 160 851 158 845 158 c 0
 836 158 827 162 819 170 c 0
 814 175 812 182 812 189 c 0
 812 196 814 203 819 208 c 2
 894 276 l 1
 130 276 l 1
 198 211 l 2
 206 205 211 195 211 185 c 0
 211 179 209 173 205 167 c 0
 199 159 189 154 179 154 c 0
 172 154 166 156 160 160 c 0
 157 163 31 283 31 283 c 2
 24 290 20 298 20 306 c 0
 20 314 24 322 31 327 c 2
 160 450 l 2
 166 454 173 456 179 456 c 0
 188 456 197 452 205 444 c 0
 210 439 212 432 212 425 c 0
 212 418 210 411 205 406 c 2
 130 337 l 1
 894 337 l 1
 826 403 l 2
 818 409 813 419 813 429 c 0
 813 435 815 441 819 447 c 0
 825 455 835 460 845 460 c 0
 852 460 858 458 864 454 c 0
 867 451 993 331 993 331 c 2
EndSplineSet
Validated: 1
EndChar

StartChar: applause
Encoding: 37 59683 37
Width: 1024
VWidth: 0
HStem: -161 53<391.421 560.167> 65 54<685.077 700> 195 54<681.096 696> 297 54<627.077 642> 429 51<884.133 953.258> 494 58<755.44 835.277> 538 56<471.417 500.748> 583 55<71.5471 111.244> 713 59<354.262 417.511> 721 53<493.915 545.724>
VStem: 15 55<137.275 375.123 380.885 383.172 387.437 582.525> 30 57<218.68 570.692> 116 55<498 581.258> 209 55<34.7151 229.292> 504 55<451.507 536.789> 554 50<651.031 718.294> 614 55<519.202 595.419> 900 57<79.043 138.828> 938 57<229.568 291.199> 955 53<369.414 426.709>
LayerCount: 3
Fore
SplineSet
1004 368 m 0xfc5d90
 997 348 983 335 966 321 c 1
 986 308 995 286 995 263 c 0xfc4ca0
 995 231 978 198 949 181 c 2
 932 170 l 1
 948 154 957 131 957 108 c 0
 957 78 942 47 911 31 c 2
 587 -133 l 2
 553 -150 512 -161 474 -161 c 0
 392 -161 314 -113 270 -45 c 0
 232 7 209 75 209 142 c 0
 209 204 229 264 276 310 c 0
 355 385 420 539 420 539 c 17
 431 562 461 590 480 593 c 0
 485 594 489 594 494 594 c 0
 504 594 513 592 523 585 c 1
 518 590 516 595 516 601 c 0
 516 607 518 614 522 621 c 2
 550 672 l 2
 553 678 554 683 554 689 c 0
 554 700 549 711 539 717 c 0
 535 720 529 721 524 721 c 0xfa4dc0
 514 721 504 716 498 706 c 2
 358 471 l 2
 352 460 343 456 335 456 c 0
 321 456 307 469 307 484 c 0
 307 489 308 493 311 498 c 2
 413 669 l 2
 417 675 418 681 418 686 c 0
 418 702 403 713 387 713 c 0
 375 713 362 707 355 693 c 1
 184 403 l 2
 177 393 164 388 151 388 c 0
 133 388 116 398 116 416 c 1
 116 539 l 1
 116 561 102 583 90 583 c 0
 89 583 l 0
 77 581 71 574 71 559 c 0
 71 556 71 553 72 549 c 0
 74 535 87 460 87 377 c 0xf99dc0
 87 337 84 294 75 256 c 0
 72 242 70 228 70 215 c 0
 70 147 113 87 198 41 c 0
 208 36 212 27 212 18 c 0
 212 3 200 -13 184 -13 c 0
 180 -13 175 -12 171 -10 c 0
 79 40 15 121 15 221 c 0xf9ac80
 15 237 17 252 20 269 c 0
 27 307 30 346 30 385 c 0
 30 437 25 488 17 539 c 1
 17 540 17 542 17 547 c 0
 17 571 23 638 82 638 c 0
 103 638 123 635 137 621 c 0
 157 601 171 573 171 546 c 2
 171 498 l 1
 304 723 l 1
 322 750 357 772 392 772 c 0xf99c80
 414 772 436 763 454 740 c 1
 470 762 497 774 524 774 c 0
 538 774 551 771 563 764 c 0
 590 747 604 720 604 691 c 0
 604 679 602 667 597 655 c 1
 607 655 618 652 628 645 c 0
 655 627 669 599 669 569 c 0
 669 554 666 539 659 525 c 0
 648 504 646 498 637 479 c 1
 754 539 l 1
 770 548 786 552 801 552 c 0
 846 552 882 516 887 474 c 1
 898 478 909 480 919 480 c 0
 967 480 1008 440 1008 392 c 0
 1008 384 1006 376 1004 368 c 0xfc5d90
543 454 m 2
 526 420 l 1
 625 471 l 2
 621 470 618 469 614 469 c 0
 598 469 583 483 583 499 c 0
 583 503 584 508 587 512 c 2
 611 549 l 2
 613 553 614 557 614 562 c 0
 614 572 609 582 601 590 c 0
 596 595 590 597 584 597 c 0
 578 597 572 595 567 590 c 0
 560 583 551 577 541 577 c 0
 537 577 533 578 529 580 c 1
 539 573 550 563 553 549 c 0
 557 537 559 525 559 512 c 0xf80e80
 559 491 554 471 543 454 c 2
898 290 m 2
 720 198 l 2
 716 196 712 195 708 195 c 0
 693 195 680 210 680 225 c 0
 680 234 685 243 696 249 c 2
 939 372 l 2
 950 378 955 388 955 397 c 0
 955 413 941 429 924 429 c 0
 920 429 916 428 911 426 c 2
 669 300 l 2
 664 298 659 297 655 297 c 0
 638 297 626 312 626 327 c 0
 626 336 631 345 642 351 c 2
 819 440 l 2
 831 446 837 456 837 465 c 0
 837 480 823 494 805 494 c 0xfc0c90
 799 494 792 492 785 488 c 1
 485 334 l 2
 481 332 477 331 473 331 c 0
 455 331 437 349 437 367 c 0
 437 371 438 375 440 379 c 2
 440 379 479 439 495 481 c 16
 499 493 504 509 504 521 c 0
 504 528 502 533 498 536 c 0
 496 538 493 538 491 538 c 0
 485 538 480 532 471 515 c 0
 467 508 403 351 314 266 c 0
 279 232 264 187 264 139 c 0
 264 85 283 28 314 -17 c 0
 332 -41 389 -108 474 -108 c 0
 500 -108 529 -102 560 -86 c 2
 884 82 l 2
 895 88 900 97 900 107 c 0xfa0ec0
 900 123 888 140 871 140 c 0
 867 140 862 139 857 136 c 2
 727 68 l 2
 722 66 717 65 713 65 c 0
 696 65 684 80 684 95 c 0
 684 104 689 113 700 119 c 2
 922 232 l 2
 934 238 938 247 938 257 c 0xfa0ca0
 938 274 924 293 908 293 c 0
 905 293 901 292 898 290 c 2
EndSplineSet
Validated: 1
EndChar

StartChar: undo
Encoding: 38 59684 38
Width: 1024
VWidth: 0
HStem: -188 65<471.547 636.759> 566 65<212 637.808>
VStem: 864 61<103.192 337.556>
LayerCount: 3
Fore
SplineSet
519 631 m 6
 742 631 925 450 925 227 c 4
 925 226 925 224 925 222 c 4
 925 -4 741 -188 515 -188 c 7
 488 -188 468 -178 468 -158 c 4
 468 -133 502 -123 519 -123 c 5
 710 -123 864 31 864 222 c 4
 864 413 710 566 519 566 c 6
 212 566 l 5
 331 447 l 6
 336 442 338 434 338 426 c 4
 338 419 336 411 331 406 c 4
 326 401 318 398 310 398 c 4
 303 398 295 401 290 406 c 6
 96 601 l 5
 290 795 l 6
 295 800 303 803 311 803 c 4
 318 803 326 800 331 795 c 4
 336 790 339 782 339 775 c 4
 339 767 336 759 331 754 c 6
 212 631 l 5
 519 631 l 6
EndSplineSet
Validated: 1
EndChar

StartChar: pen_tool
Encoding: 39 59685 39
Width: 1024
VWidth: 0
HStem: 741 60<801.893 920.307>
VStem: 945 61<597.127 716.022>
LayerCount: 3
Fore
SplineSet
966 761 m 0
 993 734 1006 700 1006 663 c 0
 1006 616 984 564 942 522 c 2
 341 -72 l 2
 338 -75 335 -78 331 -79 c 2
 65 -188 l 2
 62 -189 59 -189 56 -189 c 0
 47 -189 38 -186 31 -181 c 0
 23 -173 19 -166 19 -156 c 0
 19 -153 19 -150 20 -147 c 2
 116 133 l 2
 118 140 120 144 123 147 c 2
 724 737 l 2
 766 779 818 801 866 801 c 0
 904 801 939 788 966 761 c 0
198 130 m 1
 324 3 l 1
 847 519 l 1
 720 645 l 1
 198 130 l 1
164 75 m 1
 102 -99 l 1
 273 -31 l 1
 164 75 l 1
922 717 m 0
 906 733 886 741 865 741 c 0
 833 741 798 722 768 689 c 1
 898 566 l 1
 928 596 945 631 945 662 c 0
 945 683 937 702 922 717 c 0
EndSplineSet
Validated: 1
EndChar

StartChar: lock
Encoding: 40 59686 40
Width: 1024
VWidth: 0
HStem: -185 61<160 864> 321 64<160 205 273 751 819 864> 740 61<411.986 612.014>
VStem: 92 68<-124 321> 205 68<385 606.36> 751 68<385 606.36> 864 65<-124 321>
LayerCount: 3
Fore
SplineSet
870 385 m 2
 901 385 929 361 929 324 c 2
 929 -126 l 2
 929 -160 901 -185 867 -185 c 2
 154 -185 l 2
 123 -185 92 -160 92 -126 c 2
 92 327 l 2
 92 361 120 385 154 385 c 2
 205 385 l 1
 205 515 l 2
 205 672 341 801 512 801 c 0
 683 801 819 672 819 515 c 2
 819 385 l 1
 870 385 l 2
273 515 m 1
 273 385 l 1
 751 385 l 1
 751 515 l 1
 751 645 638 740 512 740 c 0
 386 740 273 641 273 515 c 1
864 -124 m 1
 864 321 l 1
 160 321 l 1
 160 -124 l 1
 864 -124 l 1
EndSplineSet
Validated: 1
EndChar

StartChar: polling
Encoding: 41 59687 41
Width: 1024
VWidth: 0
Flags: HMW
VStem: 12 137<44.796 149.204 301.912 396.564 558.796 663.204>
LayerCount: 3
Fore
SplineSet
966 737 m 0
 968 738 972 739 975 739 c 0
 994 739 1009 723 1009 704 c 0
 1009 686 994 670 975 670 c 0
 972 670 968 671 966 672 c 2
 249 672 l 2
 247 671 243 670 240 670 c 0
 221 670 206 686 206 704 c 0
 206 723 221 739 240 739 c 0
 243 739 247 738 249 737 c 0
 488 737 730 737 966 737 c 0
727 458 m 1
 741 454 752 439 752 425 c 0
 752 410 741 395 727 392 c 2
 249 392 l 2
 247 391 243 390 240 390 c 0
 221 390 206 406 206 425 c 0
 206 443 221 459 240 459 c 0
 243 459 247 458 249 458 c 0
 408 458 570 458 727 458 c 1
79 771 m 0
 115 771 145 741 145 704 c 0
 145 668 115 638 78 638 c 0
 41 638 12 668 12 704 c 0
 12 741 41 771 79 771 c 0
10 424 m 0
 10 461 40 491 76 491 c 0
 113 491 143 461 143 424 c 0
 143 388 113 358 76 358 c 0
 40 358 10 388 10 424 c 0
10 151 m 0
 10 188 40 218 76 218 c 0
 113 218 143 188 143 151 c 0
 143 114 113 84 76 84 c 0
 40 84 10 114 10 151 c 0
488 -96 m 2
 502 -100 514 -115 514 -129 c 0
 514 -144 502 -159 488 -162 c 2
 250 -162 l 2
 247 -163 243 -164 241 -164 c 0
 222 -164 206 -148 206 -129 c 0
 206 -111 222 -95 241 -95 c 0
 243 -95 247 -96 250 -96 c 2
 488 -96 l 2
10 -129 m 0
 10 -92 40 -63 76 -63 c 0
 113 -63 143 -92 143 -129 c 0
 143 -166 113 -196 76 -196 c 0
 40 -196 10 -166 10 -129 c 0
864 184 m 0
 866 185 870 185 873 185 c 0
 891 185 907 170 907 151 c 0
 907 132 891 117 873 117 c 0
 870 117 866 118 864 118 c 2
 249 118 l 2
 247 118 243 117 240 117 c 0
 221 117 206 132 206 151 c 0
 206 170 221 185 240 185 c 0
 243 185 247 185 249 184 c 0
 454 184 661 184 864 184 c 0
EndSplineSet
Validated: 1
EndChar

StartChar: desktop
Encoding: 42 59688 42
Width: 1024
VWidth: 0
Flags: HM
VStem: 102.4 49.1514<95.4647 625.247> 393.558 45.7383<-12.4883 45.8799> 584.704 47.4453<-12.4883 47.5869> 874.154 47.4453<95.965 626.413>
LayerCount: 3
Fore
SplineSet
855 674 m 2
 891 673 921 643 922 607 c 2
 922 116 l 0
 922 79 892 49 855 48 c 2
 632 48 l 1
 632 -14 l 1
 705 -14 l 2
 718 -14 728 -25 728 -38 c 0
 728 -51 718 -61 705 -61 c 2
 319 -61 l 2
 306 -61 296 -51 296 -38 c 0
 296 -25 306 -14 319 -14 c 2
 394 -14 l 1
 394 46 l 1
 171 46 l 2
 133 46 102 76 102 114 c 2
 102 607 l 2
 103 644 134 674 171 674 c 2
 855 674 l 2
585 -12 m 1
 585 48 l 1
 439 48 l 1
 439 -12 l 1
 585 -12 l 1
876 607 m 0
 876 618 867 626 857 626 c 2
 171 626 l 2
 160 626 152 618 152 607 c 2
 152 114 l 0
 152 104 160 95 171 95 c 2
 855 95 l 2
 866 95 874 104 874 114 c 0
 876 607 l 0
EndSplineSet
Validated: 1
EndChar

StartChar: fit_to_screen
Encoding: 43 59689 43
Width: 1024
VWidth: 0
HStem: 280 61<130 401.873 624.07 894>
VStem: 485 61<-82 189.965 421.035 693>
LayerCount: 3
Fore
SplineSet
594 -34 m 2
 599 -29 605 -26 612 -26 c 0
 619 -26 626 -29 631 -34 c 0
 639 -42 644 -52 644 -61 c 0
 644 -67 642 -73 638 -79 c 2
 536 -181 l 2
 531 -188 524 -192 516 -192 c 0
 508 -192 499 -188 492 -181 c 2
 386 -72 l 2
 381 -67 379 -60 379 -54 c 0
 379 -44 384 -34 393 -28 c 0
 399 -24 405 -22 411 -22 c 0
 420 -22 429 -26 437 -34 c 2
 485 -82 l 1
 485 164 l 2
 485 181 498 191 515 191 c 0
 532 191 546 181 546 164 c 2
 546 -82 l 1
 594 -34 l 2
631 645 m 0
 626 640 619 638 612 638 c 0
 605 638 599 640 594 645 c 2
 546 693 l 1
 546 447 l 2
 546 430 532 420 515 420 c 0
 498 420 485 430 485 447 c 2
 485 693 l 1
 437 645 l 2
 429 637 420 633 410 633 c 0
 404 633 398 634 393 638 c 0
 384 644 379 655 379 665 c 0
 379 671 381 677 386 682 c 2
 492 792 l 2
 499 799 507 802 514 802 c 0
 522 802 530 798 536 792 c 2
 638 689 l 2
 642 683 644 678 644 672 c 0
 644 663 639 653 631 645 c 0
847 188 m 0
 842 193 840 199 840 206 c 0
 840 213 842 220 847 225 c 2
 894 273 l 1
 649 273 l 2
 632 273 621 287 621 304 c 0
 621 321 632 334 649 334 c 2
 894 334 l 1
 847 382 l 2
 839 390 834 400 834 409 c 0
 834 415 836 421 840 426 c 0
 846 435 857 439 867 439 c 0
 873 439 879 437 884 433 c 2
 993 327 l 2
 1000 320 1003 312 1003 305 c 0
 1003 297 1000 290 993 283 c 2
 891 181 l 2
 887 177 881 175 875 175 c 0
 866 175 855 180 847 188 c 0
177 426 m 0
 182 421 184 415 184 408 c 0
 184 401 182 394 177 389 c 2
 130 341 l 1
 375 341 l 2
 392 341 403 327 403 310 c 0
 403 293 392 280 375 280 c 2
 130 280 l 1
 177 232 l 2
 185 224 190 214 190 205 c 0
 190 199 188 193 184 188 c 0
 178 179 167 175 157 175 c 0
 151 175 145 177 140 181 c 0
 136 184 31 287 31 287 c 2
 24 294 21 301 21 308 c 0
 21 316 25 325 31 331 c 2
 133 433 l 2
 138 438 143 440 149 440 c 0
 158 440 168 435 177 426 c 0
EndSplineSet
Validated: 1
EndChar

StartChar: fullscreen
Encoding: 44 59690 44
Width: 1024
VWidth: 0
HStem: -185 62<123 282.741 748.098 898> 740 62<126 275.68 747.131 898>
VStem: 17 62<-75 73.5959 541.534 696> 942 65<-82 69.228 543.748 696>
LayerCount: 3
Fore
SplineSet
79 -75 m 1
 79 -75 345 188 348 191 c 0
 354 196 362 199 369 199 c 0
 378 199 387 195 393 188 c 0
 398 182 400 174 400 167 c 0
 400 159 397 151 389 143 c 2
 123 -123 l 1
 249 -123 l 2
 270 -123 284 -131 284 -154 c 3
 284 -171 272 -185 249 -185 c 2
 48 -185 l 2
 31 -185 17 -171 17 -154 c 2
 17 48 l 2
 17 65 35 75 49 75 c 3
 63 75 79 65 79 48 c 2
 79 -75 l 1
126 740 m 1
 389 478 l 2
 395 472 398 465 398 458 c 0
 398 450 394 443 389 437 c 0
 381 428 372 424 363 424 c 0
 357 424 350 426 345 430 c 2
 79 696 l 1
 79 570 l 2
 79 553 64 540 47 540 c 3
 33 540 17 554 17 570 c 2
 17 771 l 2
 17 788 31 802 48 802 c 2
 249 802 l 2
 267 802 277 786 277 772 c 3
 277 755 266 740 249 740 c 2
 126 740 l 1
973 71 m 3
 990 71 1007 60 1007 44 c 2
 1007 -157 l 2
 1007 -174 993 -188 976 -188 c 2
 775 -188 l 2
 756 -188 746 -170 746 -156 c 3
 746 -143 756 -126 775 -126 c 2
 898 -126 l 1
 625 147 l 2
 618 153 615 161 615 169 c 0
 615 178 619 187 627 193 c 0
 633 198 640 200 646 200 c 0
 655 200 663 196 671 188 c 2
 942 -82 l 1
 942 41 l 2
 942 58 956 71 973 71 c 3
635 478 m 2
 898 740 l 1
 775 740 l 2
 755 740 746 755 746 772 c 3
 746 786 756 802 775 802 c 2
 976 802 l 2
 993 802 1007 788 1007 771 c 2
 1007 570 l 2
 1007 553 994 542 975 542 c 3
 959 542 945 553 945 570 c 2
 945 696 l 1
 682 433 l 2
 676 427 669 425 662 425 c 0
 652 425 641 429 635 437 c 0
 629 444 626 451 626 458 c 0
 626 464 628 471 635 478 c 2
EndSplineSet
Validated: 1
EndChar

StartChar: settings
Encoding: 45 59691 45
Width: 1024
VWidth: 0
HStem: -181 55<488 529> 78 62<431.593 592.785> 471 65<432.715 596.742> 737 58<492 532>
VStem: 20 62<290 331> 283 65<223.602 387.407> 679 62<226.215 386.74> 945 59<287 324>
LayerCount: 3
Fore
SplineSet
1004 351 m 2
 1004 263 l 1
 1004 249 986 239 976 235 c 2
 850 191 l 2
 833 147 l 2
 891 27 l 2
 893 22 895 17 895 12 c 0
 895 5 892 -2 887 -7 c 2
 823 -72 l 2
 818 -77 812 -79 805 -79 c 0
 799 -79 793 -78 788 -75 c 2
 669 -17 l 2
 625 -34 l 2
 580 -161 l 2
 577 -171 567 -181 553 -181 c 2
 464 -181 l 2
 451 -181 440 -171 437 -161 c 2
 393 -34 l 2
 348 -17 l 2
 229 -75 l 2
 223 -78 217 -80 212 -80 c 0
 205 -80 200 -77 195 -72 c 2
 130 -7 l 2
 125 -2 123 4 123 11 c 0
 123 16 124 22 126 27 c 2
 184 147 l 2
 167 191 l 2
 41 235 l 2
 30 239 20 249 20 263 c 2
 20 351 l 2
 20 365 31 375 41 379 c 2
 167 423 l 2
 184 467 l 2
 126 587 l 2
 124 592 123 597 123 602 c 0
 123 610 126 617 130 621 c 2
 195 689 l 2
 199 694 206 696 213 696 c 0
 219 696 225 695 229 693 c 2
 352 631 l 2
 396 648 l 2
 440 775 l 2
 444 785 454 795 468 795 c 2
 560 795 l 2
 573 795 584 785 587 775 c 2
 631 648 l 2
 676 631 l 2
 795 689 l 2
 801 692 807 694 812 694 c 0
 819 694 825 691 829 686 c 2
 894 621 l 2
 899 616 901 609 901 602 c 0
 901 597 900 592 898 587 c 2
 840 467 l 2
 857 423 l 2
 983 379 l 2
 993 375 1004 366 1004 353 c 0
 1004 352 1004 352 1004 351 c 2
945 287 m 1
 945 324 l 1
 823 368 l 2
 812 372 806 379 802 389 c 2
 778 450 l 2
 774 460 774 471 778 481 c 2
 833 597 l 2
 806 624 l 2
 689 570 l 2
 679 565 670 566 659 570 c 2
 597 594 l 2
 588 598 580 604 577 614 c 2
 532 737 l 2
 492 737 l 2
 447 614 l 2
 444 604 438 597 430 594 c 2
 369 570 l 2
 357 565 348 565 338 570 c 2
 222 624 l 2
 195 597 l 2
 249 488 l 2
 254 478 253 468 249 457 c 2
 225 396 l 2
 222 386 215 379 205 375 c 2
 82 331 l 1
 82 290 l 1
 205 246 l 2
 213 243 218 236 222 225 c 2
 246 164 l 2
 250 154 251 144 246 133 c 2
 191 17 l 2
 218 -10 l 2
 335 44 l 2
 344 49 355 48 365 44 c 2
 427 20 l 2
 437 16 444 10 447 -0 c 2
 488 -126 l 2
 529 -126 l 2
 573 -4 l 2
 577 7 583 13 594 17 c 2
 655 41 l 2
 665 45 676 45 686 41 c 2
 802 -14 l 2
 829 13 l 2
 775 130 l 2
 770 140 771 150 775 160 c 2
 799 222 l 2
 803 232 809 238 819 242 c 2
 945 287 l 1
512 536 m 0
 638 536 741 433 741 307 c 0
 741 181 638 78 512 78 c 0
 386 78 283 181 283 307 c 0
 283 433 386 536 512 536 c 0
512 140 m 0
 604 140 679 215 679 307 c 0
 679 396 608 471 515 471 c 0
 423 471 348 399 348 307 c 0
 348 215 420 140 512 140 c 0
EndSplineSet
Validated: 1
EndChar

StartChar: thumbs_down
Encoding: 46 59692 46
Width: 1024
VWidth: 0
HStem: -185 58<501.883 571.142> 164 58<236.565 485> 307 61<229.555 295.596> 450 61<221.711 281.688> 597 61<247.564 312.596> 740 61<246.494 695.621>
VStem: 133 58<374.589 444.64> 157 58<517.209 591.423> 163 60<232.103 288.101> 181 61<663 734.765> 437 61<-122.632 63.2797> 829 61<333.545 591.493>
LayerCount: 3
Fore
SplineSet
860 628 m 4xfc70
 880 580 890 526 890 471 c 4
 890 367 855 263 792 205 c 6
 785 198 l 6
 778 191 762 171 724 130 c 4
 697 103 651 -20 631 -92 c 4
 624 -147 574 -185 519 -185 c 4
 465 -185 437 -125 437 -72 c 4
 437 7 461 89 485 164 c 6
 276 164 l 6
 245 164 215 174 191 198 c 4xfe30
 173 216 163 240 163 265 c 4xfcb0
 163 278 165 291 171 304 c 4
 174 311 178 317 181 324 c 4xfc70
 154 341 133 375 133 409 c 4xfe30
 133 443 150 475 181 495 c 5xfc70
 164 512 157 532 157 556 c 4xfd30
 157 590 174 621 205 638 c 5
 191 655 181 680 181 700 c 4
 181 755 228 801 283 801 c 6
 604 801 l 5
 717 801 819 734 860 628 c 4xfc70
802 604 m 4
 771 689 690 740 601 740 c 5
 283 740 l 6
 263 740 242 724 242 700 c 4xfc70
 242 680 259 658 283 658 c 4
 300 658 314 645 314 628 c 4
 314 611 300 597 283 597 c 6
 256 597 l 6
 236 597 215 580 215 556 c 4xfd30
 215 532 235 511 259 511 c 4
 276 511 283 498 283 481 c 4
 283 464 270 450 253 450 c 6
 232 450 l 6
 212 450 191 433 191 409 c 4xfe30
 191 389 212 368 236 368 c 6
 266 368 l 6
 283 368 297 355 297 338 c 4
 297 321 283 307 266 307 c 4
 249 307 231 293 225 276 c 4
 224 273 223 269 223 265 c 4xfcb0
 223 254 228 242 236 235 c 4
 248 224 263 222 280 222 c 6
 526 222 l 6
 533 222 544 220 550 215 c 4
 556 210 558 202 558 194 c 4
 558 185 556 174 553 167 c 5
 526 88 498 2 498 -79 c 4
 498 -104 503 -121 529 -126 c 4
 533 -127 537 -127 541 -127 c 4
 556 -127 572 -120 580 -79 c 4
 586 -48 642 119 683 167 c 4
 721 208 743 235 751 242 c 5
 802 293 829 379 829 465 c 4
 829 514 820 562 802 604 c 4
EndSplineSet
Validated: 1
EndChar

StartChar: thumbs_up
Encoding: 47 59693 47
Width: 1024
VWidth: 0
HStem: -191 61<328.465 771.452> -41 61<711.404 772.695> 102 61<738.404 803.737> 246 61<731.404 796.652> 392 58<543 792.396> 741 62<453.771 521.429>
VStem: 139 57<16.6855 273.432> 526 66<552.41 736.241> 778 68<-124.334 -44.5184> 800 65<310.238 383.888> 809 58<25.3896 96.876> 829 62<169.51 240.938>
LayerCount: 3
Fore
SplineSet
867 58 m 4xff20
 867 24 850 -7 823 -31 c 5
 837 -45 846 -69 846 -89 c 4xff80
 846 -144 799 -191 744 -191 c 6
 427 -191 l 5
 311 -191 208 -123 167 -17 c 4
 148 30 139 81 139 132 c 4
 139 238 176 344 236 413 c 6
 300 488 l 6
 326 517 376 637 393 710 c 4
 406 766 443 803 492 803 c 4
 496 803 501 803 505 802 c 4
 557 796 592 747 592 698 c 4
 592 694 591 690 591 686 c 4
 583 608 567 525 543 450 c 6
 751 450 l 6
 782 450 813 441 836 416 c 4
 855 395 865 371 865 348 c 4xff40
 865 327 857 307 843 290 c 5
 874 274 891 239 891 204 c 4xff10
 891 172 877 139 846 119 c 5xff80
 860 102 867 82 867 58 c 4xff20
741 -130 m 5
 757 -130 778 -110 778 -86 c 4xff80
 778 -65 766 -41 741 -41 c 4
 724 -41 710 -27 710 -10 c 4
 710 7 724 20 741 20 c 6
 768 20 l 6
 788 20 809 37 809 61 c 4xff20
 809 81 792 102 768 102 c 4
 751 102 737 116 737 133 c 4
 737 150 751 163 768 163 c 6
 788 163 l 6
 808 163 829 185 829 205 c 4xff10
 829 225 812 246 788 246 c 6
 761 246 l 6
 744 246 730 259 730 276 c 4
 730 293 744 307 761 307 c 4
 778 307 795 316 799 334 c 4
 800 338 800 342 800 346 c 4xff40
 800 379 771 392 744 392 c 6
 498 392 l 6
 491 392 481 392 474 399 c 4
 466 405 462 414 462 424 c 4
 462 432 465 441 471 447 c 4
 498 526 526 608 526 693 c 4
 526 714 523 734 495 740 c 4
 493 740 490 741 487 741 c 4
 474 741 454 734 444 693 c 4
 440 678 384 494 341 447 c 6
 273 372 l 6
 225 319 196 231 196 142 c 4
 196 95 204 48 222 7 c 4
 253 -78 334 -130 423 -130 c 5
 741 -130 l 5
EndSplineSet
Validated: 1
EndChar

StartChar: file
Encoding: 48 59694 48
Width: 1024
VWidth: 0
HStem: -188 61<194.937 828.998> 508 61<658.937 788> 740 61<194.937 597>
VStem: 133 61<-126.063 739.998> 597 61<569.937 700> 829 61<-126.063 508>
LayerCount: 3
Fore
SplineSet
867 577 m 2
 881 560 890 539 890 519 c 2
 890 -106 l 2
 890 -150 853 -188 809 -188 c 2
 215 -188 l 2
 171 -188 133 -150 133 -106 c 2
 133 720 l 2
 133 764 171 801 215 801 c 2
 642 801 l 1
 867 577 l 2
658 700 m 25
 658 590 l 2
 658 580 665 569 679 569 c 2
 788 569 l 1
 658 700 l 25
809 -127 m 2
 823 -127 829 -119 829 -106 c 2
 829 508 l 1
 679 508 l 2
 635 508 597 546 597 590 c 2
 597 740 l 1
 215 740 l 2
 205 740 194 730 194 720 c 2
 194 -106 l 2
 194 -116 201 -127 215 -127 c 2
 809 -127 l 2
EndSplineSet
Validated: 1
EndChar

StartChar: upload
Encoding: 49 59695 49
Width: 1024
VWidth: 0
HStem: 89 48<138.922 388.884 635.116 897.521> 416 45<830 896.234> 546 44<227.69 341.156> 672 49<474.591 661.72>
VStem: 17 43<218.218 365.867> 485 48<-105.935 314> 782 48<461 552.245> 963 41<200.971 347.949>
LayerCount: 3
Fore
SplineSet
635 112 m 0
 635 126 645 137 659 137 c 2
 819 137 l 2
 894 137 963 191 963 266 c 0
 963 304 952 345 925 372 c 0
 898 399 861 416 823 416 c 2
 782 416 l 1
 782 431 782 446 782 461 c 0
 782 577 686 672 567 672 c 0
 485 672 413 625 375 553 c 2
 358 515 l 1
 335 533 313 546 283 546 c 0
 239 546 202 511 195 467 c 2
 191 447 l 1
 171 440 l 2
 113 420 71 372 61 310 c 0
 60 304 60 299 60 293 c 0
 60 257 75 217 102 188 c 0
 133 154 174 137 218 137 c 2
 365 137 l 2
 379 137 389 126 389 112 c 0
 389 98 379 89 365 89 c 2
 218 89 l 2
 105 89 17 177 17 290 c 0
 17 375 71 450 150 481 c 0
 164 546 218 590 283 590 c 0
 303 590 321 587 338 580 c 0
 384 669 476 721 570 721 c 0
 609 721 649 712 686 693 c 0
 771 649 830 560 830 461 c 1
 932 461 1004 368 1004 266 c 0
 1004 170 919 89 823 89 c 1
 659 89 l 1
 645 89 635 98 635 112 c 0
679 242 m 2
 683 238 684 234 684 230 c 0
 684 222 679 214 672 208 c 0
 667 204 661 202 655 202 c 0
 649 202 642 204 638 208 c 2
 533 314 l 1
 533 -82 l 2
 533 -96 523 -106 509 -106 c 0
 495 -106 485 -96 485 -82 c 2
 485 314 l 1
 379 208 l 2
 374 203 368 201 362 201 c 0
 356 201 350 203 345 208 c 0
 340 213 338 219 338 225 c 0
 338 231 340 237 345 242 c 2
 495 392 l 2
 498 395 505 399 512 399 c 24
 519 399 526 395 529 392 c 2
 679 242 l 2
EndSplineSet
Validated: 1
EndChar

StartChar: video
Encoding: 50 59696 50
Width: 1024
VWidth: 0
HStem: 13 62<82 642> 539 62<82 642>
VStem: 17 65<75 539> 642 61<75 539> 707 64<232 355> 945 62<153 433>
LayerCount: 3
Fore
SplineSet
48 13 m 2
 31 13 17 27 17 44 c 2
 17 570 l 2
 17 587 31 601 48 601 c 2
 672 601 l 2
 689 601 703 587 703 570 c 2
 703 44 l 2
 703 27 689 13 672 13 c 2
 48 13 l 2
82 75 m 1
 642 75 l 1
 642 539 l 1
 82 539 l 1
 82 75 l 1
963 78 m 2
 727 184 l 2
 717 189 707 201 707 215 c 2
 707 382 l 2
 707 396 713 403 727 409 c 2
 963 515 l 2
 967 517 972 518 976 518 c 0
 992 518 1007 504 1007 484 c 2
 1007 106 l 2
 1007 88 992 75 976 75 c 0
 972 75 967 76 963 78 c 2
945 153 m 1
 945 433 l 1
 771 355 l 1
 771 232 l 1
 945 153 l 1
EndSplineSet
Validated: 1
EndChar

StartChar: unmute
Encoding: 51 59697 51
Width: 1024
VWidth: 0
HStem: -205 68<233.926 478 546 792.706> -99 65<396.109 478 546 627.891> 58 71<434.38 589.843> 751 68<433.916 590.084>
VStem: 140 68<154.109 295.074> 300 68<198.419 684.092> 478 68<-137 -99> 655 68<193.573 685.331> 816 68<154.109 295.074>
LayerCount: 3
Fore
SplineSet
410 710 m 0
 383 683 368 645 368 607 c 2
 368 271 l 2
 368 234 383 197 410 170 c 0
 438 142 475 129 512 129 c 0
 550 129 587 143 614 170 c 0
 641 197 655 233 655 271 c 2
 655 607 l 2
 655 647 641 683 614 710 c 0
 586 738 549 751 512 751 c 0
 475 751 438 738 410 710 c 0
662 758 m 0
 703 717 723 662 723 607 c 2
 723 271 l 2
 723 155 628 58 512 58 c 0
 396 58 300 155 300 271 c 2
 300 607 l 2
 300 665 324 717 362 758 c 0
 402 798 457 819 512 819 c 0
 567 819 622 798 662 758 c 0
758 -137 m 2
 778 -137 795 -151 795 -171 c 0
 795 -191 781 -205 761 -205 c 2
 266 -205 l 2
 246 -205 232 -191 232 -171 c 0
 232 -151 246 -137 266 -137 c 2
 478 -137 l 1
 478 -99 l 1
 287 -99 140 72 140 263 c 0
 140 283 154 297 174 297 c 0
 194 297 208 283 208 263 c 0
 208 99 341 -34 505 -34 c 2
 519 -34 l 2
 683 -34 816 99 816 263 c 0
 816 283 830 297 850 297 c 0
 870 297 884 283 884 263 c 0
 884 72 737 -99 546 -99 c 1
 546 -137 l 1
 758 -137 l 2
EndSplineSet
Validated: 1
EndChar

StartChar: mute
Encoding: 52 59698 52
Width: 1024
VWidth: 0
HStem: -205 71<239.67 480 547 782.97> -99 67<401.596 480 547 628.715> 56 71<434.603 589.894> 748 71<436.733 593.354>
VStem: 141 67<153.493 287.922> 300 71<229.335 682.639> 480 67<-134 -99> 653 71<195.141 420 582 691.711> 816 67<156.934 306.144>
LayerCount: 3
Fore
SplineSet
364 120 m 2
 360 123 l 1
 293 56 l 2
 349 0 424 -32 505 -32 c 2
 519 -32 l 2
 685 -32 816 103 816 265 c 0
 816 269 816 275 816 282 c 0
 819 298 834 308 850 308 c 0
 853 308 856 308 858 307 c 0
 876 303 883 290 883 265 c 0
 883 74 738 -99 547 -99 c 1
 547 -138 l 1
 759 -138 l 2
 773 -138 787 -156 787 -172 c 0
 787 -190 776 -205 759 -205 c 2
 265 -205 l 2
 249 -205 237 -186 237 -172 c 0
 237 -151 250 -134 268 -134 c 2
 480 -134 l 1
 480 -96 l 1
 392 -96 247 10 247 10 c 9
 110 -125 l 2
 102 -133 92 -137 84 -137 c 0
 67 -137 53 -123 53 -104 c 0
 53 -93 58 -80 71 -67 c 2
 201 63 l 2
 162 123 141 194 141 265 c 0
 141 273 155 285 166 289 c 0
 169 290 171 290 174 290 c 0
 190 290 208 280 208 265 c 0
 208 212 223 159 251 113 c 2
 321 180 l 2
 307 208 300 236 300 268 c 2
 300 607 l 2
 300 663 322 716 364 755 c 0
 403 797 456 819 512 819 c 0
 568 819 620 796 657 755 c 0
 703 704 720 663 720 607 c 2
 720 582 l 1
 900 763 l 2
 910 773 921 777 931 777 c 0
 950 777 965 762 965 744 c 0
 965 734 961 724 950 713 c 2
 724 487 l 1
 724 268 l 2
 724 151 629 56 512 56 c 0
 456 56 403 81 364 120 c 2
614 169 m 0
 642 197 653 244 653 272 c 0
 653 300 653 420 653 420 c 1
 406 173 l 1
 410 169 l 2
 438 141 473 127 512 127 c 0
 551 127 589 141 614 169 c 0
371 272 m 2
 371 254 378 229 378 229 c 1
 660 512 l 1
 660 604 l 2
 660 643 646 681 618 706 c 0
 590 734 555 748 516 748 c 0
 477 748 438 734 413 706 c 0
 385 681 371 646 371 607 c 2
 371 272 l 2
EndSplineSet
Validated: 1
EndChar

StartChar: about
Encoding: 53 59699 53
Width: 1024
VWidth: 0
HStem: -205 63<375.344 648.656> 429 102<479.456 562.544> 755 64<375.344 648.656>
VStem: 0 64<170.112 443.656> 470 102<438.456 521.544> 478 89<68 375> 960 64<170.112 443.656>
LayerCount: 3
Fore
SplineSet
470 480 m 0xfa
 470 508 493 531 521 531 c 0
 549 531 572 508 572 480 c 0
 572 452 549 429 521 429 c 0
 493 429 470 452 470 480 c 0xfa
512 -205 m 0
 229 -205 0 24 0 307 c 4
 0 590 229 819 512 819 c 0
 795 819 1024 590 1024 307 c 4
 1024 24 795 -205 512 -205 c 0
512 755 m 0
 265 755 64 554 64 307 c 4
 64 59 265 -142 512 -142 c 0
 759 -142 960 59 960 307 c 4
 960 554 759 755 512 755 c 0
567 68 m 1xf6
 478 68 l 1
 478 375 l 1
 566 375 l 1
 567 68 l 1xf6
EndSplineSet
Validated: 1
EndChar

StartChar: send
Encoding: 54 59700 54
Width: 1024
VWidth: 0
LayerCount: 3
Fore
SplineSet
40 -143 m 0
 31 -143 17 -137 11 -130 c 0
 5 -124 -0 -112 -0 -103 c 0
 -0 -97 2 -89 5 -84 c 2
 217 317 l 1
 6 697 l 2
 3 702 1 711 1 717 c 0
 1 739 19 757 41 757 c 0
 46 757 53 756 58 754 c 2
 1000 344 l 2
 1013 338 1024 322 1024 307 c 0
 1024 292 1013 276 1000 270 c 2
 57 -139 l 2
 52 -141 45 -143 40 -143 c 0
78 682 m 1
 271 337 l 2
 273 332 276 324 276 318 c 0
 276 312 273 304 271 299 c 2
 76 -68 l 1
 944 307 l 1
 78 682 l 1
EndSplineSet
Validated: 1
EndChar

StartChar: exit_fullscreen
Encoding: 55 59701 55
Width: 1024
VWidth: 0
HStem: 128 67<118.038 286 739 907.85> 420 66<134.094 286 738 906.236>
VStem: 333 67<-86.9618 81 533 684.375> 625 67<-77.5822 81 533 684.375>
LayerCount: 3
Fore
SplineSet
627 440 m 0
 626 443 625 449 625 453 c 2
 625 661 l 2
 628 675 643 687 658 687 c 0
 672 687 687 675 691 661 c 2
 691 533 l 1
 968 809 l 2
 973 819 986 826 997 826 c 0
 1016 826 1031 811 1031 792 c 0
 1031 781 1024 768 1014 763 c 2
 738 486 l 1
 866 486 l 2
 868 486 872 487 874 487 c 0
 893 487 908 472 908 453 c 0
 908 434 893 419 874 419 c 0
 872 419 868 419 866 420 c 2
 658 420 l 2
 646 420 632 429 627 440 c 0
56 -195 m 2
 52 -198 44 -200 39 -200 c 0
 20 -200 5 -185 5 -166 c 0
 5 -161 7 -153 10 -149 c 2
 286 129 l 1
 158 129 l 2
 156 129 152 128 150 128 c 0
 131 128 116 143 116 162 c 0
 116 181 131 196 150 196 c 0
 152 196 156 196 158 195 c 2
 365 195 l 2
 384 195 399 180 399 161 c 2
 399 -47 l 2
 400 -49 400 -53 400 -55 c 0
 400 -74 385 -89 366 -89 c 0
 347 -89 332 -74 332 -55 c 0
 332 -53 333 -49 333 -47 c 2
 333 81 l 1
 56 -195 l 2
286 486 m 1
 10 763 l 2
 7 767 5 775 5 780 c 0
 5 799 20 814 39 814 c 0
 44 814 52 812 56 809 c 2
 334 533 l 1
 334 661 l 2
 338 675 353 687 367 687 c 0
 382 687 397 675 400 661 c 2
 400 454 l 2
 400 435 385 420 366 420 c 2
 158 420 l 2
 144 423 132 438 132 453 c 0
 132 467 144 482 158 486 c 2
 286 486 l 1
658 -80 m 0
 641 -79 626 -65 625 -48 c 2
 625 160 l 2
 625 179 640 194 659 194 c 2
 867 194 l 2
 870 195 873 195 876 195 c 0
 894 195 910 180 910 161 c 0
 910 142 894 127 876 127 c 0
 873 127 870 128 867 128 c 2
 739 128 l 1
 1015 -149 l 2
 1018 -153 1020 -161 1020 -166 c 0
 1020 -185 1005 -200 986 -200 c 0
 981 -200 973 -198 969 -195 c 2
 692 81 l 1
 692 -46 l 2
 692 -65 677 -80 658 -80 c 0
EndSplineSet
Validated: 1
EndChar

StartChar: delete
Encoding: 56 59702 56
Width: 1024
VWidth: 0
HStem: -185 68<224.438 799.562> 617 68<52.0382 186 254 341 410 614 683 770 839 972.962> 731 68<413.328 610.672>
VStem: 154 69<-116.998 62.936> 186 68<457.064 617> 309 68<-31.9618 210.112> 325 68<258.888 501.839> 341 69<685 727.208> 478 68<-31.9618 502.962> 614 69<685 727.208> 631 68<258.888 501.839> 647 68<-31.9618 210.112> 770 69<452.211 617> 801 69<-116.998 66.7889>
LayerCount: 3
Fore
SplineSet
343 -34 m 1xe480
 324 -34 309 -19 309 -0 c 2xe480
 325 469 l 2
 325 488 340 504 359 504 c 0
 378 504 393 488 393 469 c 2xe280
 377 -0 l 2
 377 -19 362 -34 343 -34 c 1xe480
512 -34 m 0
 493 -34 478 -19 478 -0 c 2
 478 471 l 2
 478 490 493 505 512 505 c 0
 531 505 546 490 546 471 c 2
 546 -0 l 2
 546 -19 531 -34 512 -34 c 0
681 -34 m 0
 662 -34 647 -19 647 -0 c 2xe090
 631 469 l 2
 631 488 646 504 665 504 c 1
 684 504 699 488 699 469 c 2xe0a0
 715 -0 l 2xe090
 715 -19 700 -34 681 -34 c 0
941 685 m 2
 960 685 975 670 975 651 c 0
 975 632 960 617 941 617 c 2
 839 617 l 1xe9c8
 870 -97 l 2
 870 -146 830 -185 782 -185 c 1
 242 -185 l 2
 194 -185 154 -146 154 -97 c 2xf084
 186 617 l 1
 84 617 l 2
 65 617 50 632 50 651 c 0
 50 670 65 685 84 685 c 2
 341 685 l 1
 341 697 l 2
 341 753 387 799 444 799 c 2
 580 799 l 2
 637 799 683 753 683 697 c 2
 683 685 l 1xe9c0
 769 685 941 685 941 685 c 2
410 697 m 2
 410 685 l 1
 614 685 l 1
 614 697 l 2
 614 716 599 731 580 731 c 2
 444 731 l 2
 425 731 410 716 410 697 c 2
782 -117 m 0
 792 -117 801 -109 801 -99 c 2xf084
 770 618 l 1
 254 618 l 1xe888
 223 -99 l 2xf080
 223 -109 232 -117 242 -117 c 2
 782 -117 l 0
EndSplineSet
Validated: 1
EndChar

StartChar: unmute_filled
Encoding: 57 59703 57
Width: 1024
VWidth: 0
HStem: -205 68<235.038 480 549 793.85> -98 67<401.321 480 549 630.2>
VStem: 143 69<163.279 296.518> 480 69<-137 -96.2577> 817 68<156.661 296.962>
LayerCount: 3
Fore
SplineSet
514 59 m 0
 480 59 431 73 402 92 c 1
 725 415 l 1
 725 270 l 2
 725 154 630 60 514 59 c 0
663 757 m 0
 688 733 714 686 721 652 c 2
 307 239 l 2
 305 247 304 262 303 270 c 2
 303 608 l 2
 303 658 330 723 365 757 c 0
 400 792 464 819 514 819 c 0
 564 819 629 792 663 757 c 0
212 263 m 0
 212 234 220 189 229 162 c 2
 177 110 l 2
 159 151 143 219 143 264 c 0
 143 284 158 299 177 299 c 0
 197 299 212 283 212 263 c 0
480 -98 m 2
 420 -93 333 -60 286 -23 c 2
 335 25 l 2
 377 -6 454 -31 507 -31 c 2
 522 -31 l 2
 685 -31 817 102 817 265 c 0
 817 284 832 299 851 299 c 0
 870 299 885 284 885 265 c 0
 885 78 734 -84 549 -98 c 1
 549 -137 l 1
 762 -137 l 2
 780 -137 796 -152 796 -171 c 0
 796 -190 780 -205 762 -205 c 2
 267 -205 l 2
 248 -205 233 -190 233 -171 c 0
 233 -152 248 -137 267 -137 c 2
 480 -137 l 1
 480 -98 l 2
97 -137 m 0
 70 -137 49 -117 49 -90 c 0
 49 -79 55 -64 63 -57 c 2
 894 772 l 2
 901 779 916 785 927 785 c 0
 937 785 952 779 960 772 c 0
 967 764 974 749 974 739 c 0
 974 728 967 713 960 706 c 2
 130 -123 l 2
 123 -131 108 -137 97 -137 c 0
EndSplineSet
Validated: 1
EndChar

StartChar: mute_filled
Encoding: 58 59704 58
Width: 1024
VWidth: 0
HStem: -205 68<233.038 478 546 790.962> -98 67<396.212 478 546 627.339> 59 758<420.755 603.245>
VStem: 141 68<156.661 296.962> 301 422<178.925 696.129> 478 68<-137 -96.2577> 815 68<156.661 296.962>
LayerCount: 3
Fore
SplineSet
661 757 m 0xfa
 696 723 723 659 723 609 c 2
 723 270 l 2
 723 154 628 60 512 59 c 0
 396 60 301 154 301 270 c 2
 301 609 l 2
 301 657 329 724 363 757 c 0
 402 797 457 817 512 817 c 0
 567 817 622 797 661 757 c 0xfa
759 -137 m 2
 778 -137 793 -152 793 -171 c 0
 793 -190 778 -205 759 -205 c 2
 265 -205 l 2
 246 -205 231 -190 231 -171 c 0
 231 -152 246 -137 265 -137 c 2
 478 -137 l 1
 478 -98 l 1
 292 -84 141 78 141 265 c 0
 141 284 156 299 175 299 c 0
 194 299 209 284 209 265 c 0
 209 102 342 -31 504 -31 c 2
 519 -31 l 2
 682 -31 815 102 815 265 c 0
 815 284 830 299 849 299 c 0
 868 299 883 284 883 265 c 0
 883 78 732 -84 546 -98 c 1
 546 -137 l 1xf6
 759 -137 l 2
EndSplineSet
Validated: 1
EndChar

StartChar: listen_filled
Encoding: 59 59705 59
Width: 1024
VWidth: 0
HStem: -188 550<891.417 1008.84> -173 550<185.353 303.589> 737 65<469.965 726.425>
VStem: 0 305<-3.54688 199.173> 890 301<-15.1316 202.864>
LayerCount: 3
Fore
SplineSet
1079 312 m 1x78
 1156 258 1191 176 1191 94 c 0
 1191 -46 1089 -187 922 -188 c 0
 904 -188 890 -174 890 -156 c 2
 890 331 l 2
 890 349 904 362 923 362 c 0xb8
 949 362 990 355 1014 346 c 1
 1000 562 813 737 597 737 c 0
 388 737 202 568 181 361 c 1
 206 370 247 377 273 377 c 0
 291 377 305 363 305 346 c 2
 305 -141 l 2
 305 -159 291 -173 273 -173 c 0
 122 -171 0 -48 0 103 c 0
 0 180 51 280 114 326 c 0
 119 587 335 800 596 802 c 0
 865 800 1079 581 1079 312 c 1x78
EndSplineSet
Validated: 1
EndChar

StartChar: template_upload
Encoding: 60 59706 60
Width: 1024
VWidth: 0
HStem: 651 85<5.06703 1019.15>
VStem: 469 86<-116.861 375>
LayerCount: 3
Fore
SplineSet
512 537 m 1
 770 280 l 2
 777 273 783 259 783 249 c 0
 783 226 763 207 740 207 c 0
 730 207 717 212 710 219 c 2
 555 375 l 1
 555 -79 l 2
 555 -103 536 -122 512 -122 c 0
 488 -122 469 -103 469 -79 c 2
 469 375 l 1
 314 219 l 2
 307 213 294 207 284 207 c 0
 261 207 241 227 241 249 c 0
 241 259 247 273 254 280 c 2
 512 537 l 1
39 736 m 2
 985 736 l 6
 1008 735 1024 716 1024 692 c 0
 1024 670 1006 652 985 651 c 2
 39 651 l 1
 17 652 0 670 0 693 c 0
 0 716 17 735 39 736 c 2
EndSplineSet
Validated: 1
EndChar

StartChar: template_download
Encoding: 61 59707 61
Width: 1024
VWidth: 0
HStem: -122 85<2.10864 1021.89>
VStem: 469 86<239 730.861>
LayerCount: 3
Fore
SplineSet
512 77 m 1
 254 334 l 2
 247 341 241 355 241 365 c 0
 241 388 261 407 284 407 c 0
 294 407 307 402 314 395 c 2
 469 239 l 1
 469 693 l 2
 469 717 488 736 512 736 c 0
 536 736 555 717 555 693 c 2
 555 239 l 1
 710 394 l 2
 717 400 730 406 740 406 c 0
 750 406 763 400 770 394 c 0
 777 387 783 373 783 363 c 0
 783 354 777 340 770 333 c 2
 512 77 l 1
985 -122 m 2
 39 -122 l 2
 16 -122 -3 -103 -3 -79 c 0
 -3 -56 16 -37 39 -37 c 2
 985 -37 l 2
 1008 -37 1027 -56 1027 -79 c 0
 1027 -103 1008 -122 985 -122 c 2
EndSplineSet
Validated: 1
EndChar

StartChar: download
Encoding: 62 59708 62
Width: 1024
VWidth: 0
HStem: -205 62<183.405 840.261> 516 64<664.739 798> 757 62<183.739 601>
VStem: 120 62<-142.722 755.261> 482 60<94 447.017> 601 62<581.786 713> 842 62<-141.261 516>
LayerCount: 3
Fore
SplineSet
879 585 m 2
 893 572 904 545 904 525 c 2
 904 -120 l 2
 904 -167 866 -205 819 -205 c 2
 205 -205 l 6
 157 -205 120 -167 120 -119 c 2
 120 734 l 2
 120 781 158 819 205 819 c 2
 645 819 l 1
 879 585 l 2
663 713 m 1
 663 603 l 2
 663 590 673 580 686 580 c 2
 798 580 l 1
 663 713 l 1
819 -143 m 2
 832 -143 842 -133 842 -120 c 2
 842 516 l 1
 686 516 l 2
 639 516 601 554 601 601 c 2
 601 757 l 1
 205 757 l 2
 191 757 182 747 182 733 c 2
 182 -120 l 2
 182 -133 192 -143 205 -143 c 2
 819 -143 l 2
512 -22 m 1
 328 161 l 2
 323 166 319 176 319 183 c 0
 319 200 333 213 350 213 c 0
 357 213 366 209 371 205 c 2
 482 94 l 1
 482 417 l 2
 482 434 495 448 512 448 c 0
 529 448 542 434 542 417 c 2
 542 94 l 1
 653 205 l 2
 658 209 667 213 674 213 c 0
 691 213 705 200 705 183 c 0
 705 176 701 167 696 162 c 2
 512 -22 l 1
EndSplineSet
Validated: 1
EndChar

StartChar: multi_whiteboard
Encoding: 63 59709 63
Width: 1024
VWidth: 0
HStem: -141 51<51.1911 751.549> 78 51<805 972.809> 148 51<403.586 497.162> 198 52<281.18 376.274> 466 51<51.1911 219 271 751.549> 685 51<272.451 972.809>
VStem: 0 51<-88.4955 465.809> 219 52<517 683.495> 753 52<-88.4955 78 129 465.809> 973 51<129.191 683.495>
LayerCount: 3
Fore
SplineSet
956 736 m 2xcfc0
 993 736 1024 706 1024 668 c 2
 1024 146 l 2
 1024 109 993 78 956 78 c 2
 805 78 l 1
 805 -73 l 1
 805 -111 774 -141 736 -141 c 2
 68 -141 l 2
 31 -141 0 -111 0 -73 c 2
 0 449 l 2
 0 486 31 517 68 517 c 2
 219 517 l 1
 219 668 l 2
 219 706 250 736 288 736 c 2
 956 736 l 2xcfc0
753 449 m 2
 753 458 746 466 736 466 c 2
 68 466 l 2
 59 466 51 458 51 449 c 2
 51 -75 l 2
 51 -84 55 -90 62 -90 c 2
 736 -90 l 2
 746 -90 753 -83 753 -73 c 6
 753 449 l 2
973 146 m 2
 973 668 l 2
 973 678 965 685 956 685 c 2
 288 685 l 2
 278 685 271 678 271 668 c 2
 271 517 l 1
 736 517 l 2
 774 517 805 486 805 449 c 2
 805 129 l 1
 956 129 l 2
 965 129 973 137 973 146 c 2
153 37 m 0
 138 37 127 49 127 63 c 0
 127 67 129 74 131 77 c 0
 208 192 266 245 321 250 c 0xdfc0
 356 250 399 231 421 205 c 0
 424 202 429 199 437 199 c 0
 455 199 488 212 536 246 c 0
 565 267 609 304 634 329 c 0
 638 333 646 336 652 336 c 0
 666 336 677 325 677 310 c 0
 677 305 674 297 670 293 c 0
 643 266 596 227 566 205 c 0
 512 167 469 148 435 148 c 0xefc0
 415 148 398 155 384 168 c 0
 372 184 346 198 326 198 c 0xdfc0
 289 194 238 144 174 48 c 0
 170 42 161 37 153 37 c 0
EndSplineSet
Validated: 1
EndChar

StartChar: whiteboard
Encoding: 64 59710 64
Width: 1024
VWidth: 0
HStem: -112 65<65.2736 958.726> 259 65<527.095 623.243> 322 65<365.844 473.94> 661 65<65.2736 958.726>
VStem: 0 65<-46.7264 660.726> 959 65<-46.7264 660.726>
LayerCount: 3
Fore
SplineSet
194 116 m 0xbc
 177 117 163 132 163 150 c 0
 163 154 165 162 167 166 c 0
 264 311 338 379 409 387 c 1xbc
 454 387 507 363 535 330 c 0
 539 326 546 324 555 324 c 0
 579 324 620 339 682 383 c 0
 719 410 775 458 807 489 c 0
 811 491 818 493 823 493 c 0
 842 493 857 478 857 459 c 0
 857 455 855 448 853 444 c 0
 819 410 759 359 720 331 c 0
 653 283 598 259 555 259 c 0xdc
 529 259 507 268 489 285 c 0
 474 305 441 322 416 322 c 0
 369 318 303 254 222 131 c 0
 216 122 204 116 194 116 c 0xbc
87 661 m 2
 75 661 65 651 65 639 c 2
 65 -25 l 2
 65 -37 75 -47 87 -47 c 2
 937 -47 l 2
 949 -47 959 -37 959 -25 c 2
 959 639 l 2
 959 651 949 661 937 661 c 2
 87 661 l 2
937 726 m 2
 985 726 1024 687 1024 639 c 2
 1024 -25 l 2
 1024 -73 985 -112 937 -112 c 2
 87 -112 l 2
 39 -112 -0 -73 0 -25 c 2
 0 639 l 2
 0 687 39 726 87 726 c 2
 937 726 l 2
EndSplineSet
Validated: 1
EndChar

StartChar: rooms
Encoding: 65 59711 65
Width: 1024
VWidth: 0
HStem: -203 58<189 967> 144 58<58 131> 280 58<189 966> 353.08 43.6904<248.007 291.993 336.22 379.897 424.284 467.961> 412 58<189 835 892 966> 628 57<58 835> 700 44<117.007 159.993 205.007 247.993 293.007 335.993> 759 58<58 835>
VStem: 0 58<202 628 685 759> 117 43<700.007 743.993> 132 57<-145 144 202 280 338 412> 205 43<700.007 743.993> 248 44<353.087 396.993> 293 43<700.007 743.993> 336.213 43.6914<353.087 396.763> 424.277 43.6904<353.087 396.763> 835 57<470 628 685 759> 967 57<-145 280 338 412>
LayerCount: 3
Fore
SplineSet
117 722 m 0xffc7c0
 117 734 127 744 139 744 c 0
 151 744 160 734 160 722 c 0
 160 710 151 700 139 700 c 0
 127 700 117 710 117 722 c 0xffc7c0
205 722 m 0xff97c0
 205 734 215 744 227 744 c 0
 239 744 248 734 248 722 c 0
 248 710 239 700 227 700 c 0
 215 700 205 710 205 722 c 0xff97c0
293 722 m 0
 293 734 302 744 314 744 c 0
 326 744 336 734 336 722 c 0
 336 710 326 700 314 700 c 0
 302 700 293 710 293 722 c 0
973 470 m 2
 1001 470 1024 447 1024 419 c 2
 1024 -152 l 2
 1024 -180 1001 -203 973 -203 c 2
 183 -203 l 2
 155 -203 132 -180 132 -152 c 2
 132 144 l 1xffa7c0
 51 144 l 2
 23 144 0 167 0 195 c 2
 0 766 l 2
 0 794 23 817 51 817 c 2
 842 817 l 2
 870 817 892 794 892 766 c 2
 892 470 l 1
 973 470 l 2
58 759 m 1
 58 685 l 1
 835 685 l 1
 835 759 l 1
 58 759 l 1
58 202 m 1
 131 202 l 1
 131 419 l 2
 131 447 154 470 182 470 c 2
 835 470 l 1
 835 628 l 1
 58 628 l 1
 58 202 l 1
967 280 m 1
 189 280 l 1
 189 -145 l 1
 967 -145 l 1
 967 280 l 1
189 338 m 1
 966 338 l 1
 966 412 l 1
 189 412 l 1
 189 338 l 1
248 375 m 0xff8fc0
 248 387 258 397 270 397 c 0
 282 397 292 387 292 375 c 0
 292 363 282.400390625 353.080078125 270.3359375 353.080078125 c 0
 258.271484375 353.080078125 248 363 248 375 c 0xff8fc0
336.212890625 374.92578125 m 0
 336.212890625 386.990234375 345.994140625 396.770507812 358.05859375 396.770507812 c 0
 370.123046875 396.770507812 379.904296875 386.990234375 379.904296875 374.92578125 c 0
 379.904296875 362.860351562 370.123046875 353.080078125 358.05859375 353.080078125 c 0
 345.994140625 353.080078125 336.212890625 362.860351562 336.212890625 374.92578125 c 0
424.27734375 374.92578125 m 0
 424.27734375 386.990234375 434.057617188 396.770507812 446.123046875 396.770507812 c 0
 458.1875 396.770507812 467.967773438 386.990234375 467.967773438 374.92578125 c 0
 467.967773438 362.860351562 458.1875 353.080078125 446.123046875 353.080078125 c 0
 434.057617188 353.080078125 424.27734375 362.860351562 424.27734375 374.92578125 c 0
EndSplineSet
Validated: 1
EndChar

StartChar: unlock
Encoding: 66 59712 66
Width: 1024
VWidth: 0
HStem: -188 64<183 841> 319 65<183 736 799 841> 738 64<421.258 609.078>
VStem: 119 64<-124 319> 736 63<384 606.704> 841 64<-124 319>
LayerCount: 3
Fore
SplineSet
334 698 m 0
 329 704 327 712 327 719 c 0
 327 729 331 738 340 744 c 0
 381 776 458 802 510 802 c 0
 670 798 799 665 799 504 c 2
 799 384 l 1
 846 384 l 2
 879 384 905 357 905 325 c 2
 905 -129 l 2
 905 -162 879 -188 846 -188 c 2
 178 -188 l 2
 155 -188 120 -162 120 -125 c 2
 120 -125 119 271 119 325 c 0
 119 357 146 384 178 384 c 2
 736 384 l 1
 736 515 l 2
 735 638 635 738 512 738 c 0
 471 737 411 716 377 692 c 0
 372 689 366 687 360 687 c 0
 350 687 340 691 334 698 c 0
841 -124 m 1
 841 319 l 1
 183 319 l 1
 183 -124 l 1
 841 -124 l 1
EndSplineSet
Validated: 1
EndChar

StartChar: record
Encoding: 67 59713 67
Width: 1024
VWidth: 0
HStem: -188 64<380.235 643.765> 147 320<432.521 591.479> 738 64<380.235 643.765>
VStem: 17 64<175.235 438.765> 352 320<227.521 386.479> 943 64<175.235 438.765>
CounterMasks: 1 fc
LayerCount: 3
Fore
SplineSet
512 802 m 4
 785 802 1007 580 1007 307 c 4
 1007 34 785 -188 512 -188 c 4
 239 -188 17 34 17 307 c 4
 17 580 239 802 512 802 c 4
512 -124 m 4
 750 -124 943 69 943 307 c 4
 943 545 750 738 512 738 c 4
 274 738 81 545 81 307 c 4
 81 69 274 -124 512 -124 c 4
352 307 m 4
 352 395 424 467 512 467 c 4
 600 467 672 395 672 307 c 4
 672 219 600 147 512 147 c 4
 424 147 352 219 352 307 c 4
EndSplineSet
Validated: 1
EndChar

StartChar: network
Encoding: 68 59714 68
Width: 1024
VWidth: 0
Flags: W
HStem: -99 266<438.81 581.927> 282 73<394.368 630.848> 454 74<363.867 655.903> 639 75<358.275 663.318>
VStem: 378 265<-37.4848 105.927>
LayerCount: 3
Fore
SplineSet
378 34 m 4
 378 108 437 167 510 167 c 4
 584 167 643 108 643 34 c 4
 643 -39 584 -99 510 -99 c 4
 437 -99 378 -39 378 34 c 4
248 228 m 4
 245 235 243 242 243 249 c 4
 243 262 249 273 260 280 c 4
 324 320 437 354 512 355 c 4
 586 354 697 321 760 282 c 4
 774 273 779 260 779 248 c 4
 779 239 776 231 772 227 c 4
 765 220 753 213 742 213 c 4
 736 213 731 214 726 218 c 4
 672 252 576 281 512 282 c 4
 448 281 352 251 298 217 c 4
 293 213 287 212 281 212 c 4
 268 212 254 219 248 228 c 4
845 353 m 4
 762 409 612 454 511 454 c 4
 410 454 260 409 176 353 c 4
 170 349 163 347 156 347 c 4
 145 347 134 352 127 362 c 4
 122 368 120 376 120 383 c 4
 120 396 127 409 137 415 c 4
 231 477 399 528 512 528 c 4
 625 528 793 477 887 415 c 4
 897 409 903 396 903 384 c 4
 903 376 901 369 896 363 c 4
 889 353 879 348 867 348 c 4
 860 348 852 350 845 353 c 4
964 477 m 4
 855 566 652 639 510 639 c 4
 370 639 169 568 60 479 c 4
 53 474 44 471 35 471 c 4
 26 471 16 475 9 483 c 4
 3 490 -0 499 -0 508 c 4
 -0 519 5 530 13 537 c 4
 133 635 355 714 510 714 c 4
 666 714 891 633 1011 534 c 4
 1019 527 1024 516 1024 506 c 4
 1024 497 1021 488 1015 481 c 4
 1008 473 998 468 988 468 c 4
 979 468 971 471 964 477 c 4
EndSplineSet
Validated: 1
EndChar

StartChar: redo
Encoding: 69 59715 69
Width: 1024
VWidth: 0
Flags: W
HStem: -188 65<387.241 552.453> 566 65<386.192 812>
VStem: 99 61<103.192 337.556>
LayerCount: 3
Fore
SplineSet
505 631 m 2
 812 631 l 1
 693 754 l 2
 688 759 685 767 685 775 c 0
 685 782 688 790 693 795 c 0
 698 800 706 803 713 803 c 0
 721 803 729 800 734 795 c 2
 928 601 l 1
 734 406 l 2
 729 401 721 398 714 398 c 0
 706 398 698 401 693 406 c 0
 688 411 686 419 686 426 c 0
 686 434 688 442 693 447 c 2
 812 566 l 1
 505 566 l 2
 314 566 160 413 160 222 c 0
 160 31 314 -123 505 -123 c 1
 522 -123 556 -133 556 -158 c 0
 556 -178 536 -188 509 -188 c 3
 283 -188 99 -4 99 222 c 0
 99 224 99 226 99 227 c 0
 99 450 282 631 505 631 c 2
EndSplineSet
Validated: 1
EndChar

StartChar: thumbs_down_filled
Encoding: 70 59716 70
Width: 1024
VWidth: 0
Flags: W
LayerCount: 3
Fore
SplineSet
860 628 m 0
 880 580 890 526 890 471 c 0
 890 367 855 263 792 205 c 2
 785 198 l 2
 778 191 762 171 724 130 c 0
 697 103 651 -20 631 -92 c 0
 624 -147 574 -185 519 -185 c 0
 465 -185 437 -125 437 -72 c 0
 437 7 461 89 485 164 c 2
 276 164 l 2
 245 164 215 174 191 198 c 0
 173 216 163 240 163 265 c 0
 163 278 165 291 171 304 c 0
 174 311 178 317 181 324 c 0
 154 341 133 375 133 409 c 0
 133 443 150 475 181 495 c 1
 164 512 157 532 157 556 c 0
 157 590 174 621 205 638 c 1
 191 655 181 680 181 700 c 0
 181 755 228 801 283 801 c 2
 604 801 l 1
 717 801 819 734 860 628 c 0
EndSplineSet
Validated: 1
EndChar

StartChar: thumbs_up_filled
Encoding: 71 59717 71
Width: 1024
VWidth: 0
Flags: W
LayerCount: 3
Fore
SplineSet
867 58 m 0
 867 24 850 -7 823 -31 c 1
 837 -45 846 -69 846 -89 c 0
 846 -144 799 -191 744 -191 c 2
 427 -191 l 1
 311 -191 208 -123 167 -17 c 0
 148 30 139 81 139 132 c 0
 139 238 176 344 236 413 c 2
 300 488 l 2
 326 517 376 637 393 710 c 0
 406 766 443 803 492 803 c 0
 496 803 501 803 505 802 c 0
 557 796 592 747 592 698 c 0
 592 694 591 690 591 686 c 0
 583 608 567 525 543 450 c 2
 751 450 l 2
 782 450 813 441 836 416 c 0
 855 395 865 371 865 348 c 0
 865 327 857 307 843 290 c 1
 874 274 891 239 891 204 c 0
 891 172 877 139 846 119 c 1
 860 102 867 82 867 58 c 0
EndSplineSet
Validated: 1
EndChar

StartChar: checkmark
Encoding: 72 59718 72
Width: 1024
VWidth: 0
Flags: W
LayerCount: 3
Fore
SplineSet
901 650 m 2
 910 660 921 664 932 664 c 0
 958 664 985 640 985 616 c 0
 985 608 982 599 975 592 c 2
 414 -35 l 1
 406 -44 394 -51 382 -51 c 0
 372 -51 360 -48 352 -41 c 2
 63 214 l 2
 49 227 42 241 42 254 c 0
 42 277 61 297 86 297 c 0
 97 297 110 293 121 283 c 2
 376 57 l 1
 901 650 l 2
EndSplineSet
Validated: 1
EndChar

StartChar: speak_louder
Encoding: 73 59719 73
Width: 1024
VWidth: 0
Flags: W
HStem: 175 46<48.9828 194> 392 47<48.9828 194>
VStem: 0 47<226.212 389.568> 434 46<2 612> 667 50<194.737 413.583> 815 48<170.865 447.181> 975 48<162.623 454.124>
LayerCount: 3
Fore
SplineSet
617 529 m 5
 620 531 626 532 630 532 c 4
 638 532 647 527 651 520 c 4
 685 466 715 371 717 307 c 4
 715 244 687 150 654 97 c 4
 650 90 641 85 633 85 c 4
 629 85 623 86 620 88 c 5
 614 92 609 101 609 108 c 4
 609 112 610 117 612 120 c 4
 641 168 665 251 667 307 c 4
 665 363 639 447 609 495 c 4
 607 498 605 504 605 508 c 4
 605 515 611 525 617 529 c 5
732 -19 m 5
 727 -15 722 -6 722 1 c 4
 722 6 724 12 727 16 c 4
 775 89 815 220 815 309 c 4
 815 397 776 529 727 602 c 4
 725 605 722 612 722 616 c 4
 722 623 728 628 732 636 c 20
 736 638 742 640 746 640 c 4
 753 640 762 636 766 630 c 4
 820 549 863 406 863 309 c 4
 863 213 820 69 766 -11 c 4
 762 -17 753 -22 746 -22 c 4
 743 -22 736 -22 732 -19 c 5
835 -122 m 6
 831 -118 827 -110 827 -103 c 4
 827 -98 830 -91 833 -88 c 4
 911 8 975 185 975 309 c 4
 975 431 912 608 835 703 c 4
 832 706 829 713 829 718 c 4
 829 725 833 733 838 737 c 5
 841 740 849 743 854 743 c 4
 860 743 868 739 872 734 c 4
 955 632 1023 441 1023 309 c 4
 1023 176 954 -16 869 -119 c 4
 865 -124 857 -127 851 -127 c 4
 846 -127 839 -126 835 -122 c 6
457 -78 m 4
 452 -78 444 -75 441 -71 c 6
 194 175 l 5
 77 175 l 6
 35 175 0 210 0 253 c 6
 0 361 l 6
 0 404 35 439 77 439 c 6
 194 439 l 5
 440 685 l 6
 444 689 452 692 457 692 c 4
 470 692 480 682 480 668 c 6
 480 -54 l 6
 480 -67 470 -78 457 -78 c 4
77 392 m 6
 61 392 47 378 47 361 c 6
 47 252 l 6
 47 224 85 218 126 218 c 4
 155 218 185 221 205 221 c 4
 210 221 217 218 221 214 c 6
 434 2 l 5
 434 612 l 5
 221 399 l 6
 217 395 209 392 204 392 c 6
 77 392 l 6
EndSplineSet
Validated: 1
EndChar

StartChar: help
Encoding: 74 59720 74
Width: 1024
VWidth: 0
Flags: W
HStem: -205 63<375.344 648.656> 71 96<450.688 532.265> 482 61<412.302 559.339> 755 64<375.344 648.656>
VStem: 0 64<170.112 443.656> 443 97<79.332 158.668> 458 62<219 272.48> 574 70<382.725 468.651> 960 64<170.112 443.656>
LayerCount: 3
Fore
SplineSet
443 119 m 0xfd80
 443 145 465 167 491 167 c 0
 518 167 540 145 540 119 c 0
 540 93 518 71 491 71 c 0
 465 71 443 93 443 119 c 0xfd80
512 -205 m 0
 229 -205 0 24 0 307 c 0
 0 590 229 819 512 819 c 0
 795 819 1024 590 1024 307 c 0
 1024 24 795 -205 512 -205 c 0
512 755 m 0
 265 755 64 554 64 307 c 0
 64 59 265 -142 512 -142 c 0
 759 -142 960 59 960 307 c 0
 960 554 759 755 512 755 c 0
458 219 m 1xfb80
 458 239 l 2
 458 257 463 281 471 296 c 0
 480 312 500 333 515 343 c 0
 530 354 551 374 563 389 c 0
 570 400 574 416 574 431 c 0
 574 443 566 460 556 468 c 0
 545 476 525 482 511 482 c 0
 492 482 468 479 451 474 c 2
 428 465 l 2
 424 464 421 463 417 463 c 0
 405 463 394 470 389 480 c 1
 387 484 386 490 386 494 c 0
 386 505 395 518 406 523 c 0
 436 535 482 543 517 543 c 0
 545 543 586 529 608 512 c 0
 628 495 644 460 644 434 c 0
 644 418 642 401 637 387 c 0
 633 377 623 362 616 353 c 0
 604 340 582 321 568 310 c 0
 556 301 539 285 529 273 c 0
 523 262 520 245 520 233 c 2
 520 219 l 1
 458 219 l 1xfb80
EndSplineSet
Validated: 1
EndChar

StartChar: refresh
Encoding: 75 59721 75
Width: 1024
VWidth: 0
HStem: -60 58<511.743 623.317> 616 57<398.609 511.341>
VStem: 150 57<40 420.762> 817 57<195.423 574>
LayerCount: 3
Fore
SplineSet
487 616 m 0
 333 603 208 466 207 312 c 2
 207 39 l 1
 314 146 l 2
 318 149 324 151 328 151 c 0
 342 151 354 139 354 126 c 0
 354 121 352 115 350 112 c 0
 293 55 179 -61 179 -61 c 1
 179 -61 64 54 7 111 c 0
 3 115 -0 123 -0 129 c 0
 -0 135 3 143 7 147 c 0
 11 151 19 154 24 154 c 0
 30 154 37 151 41 147 c 2
 150 40 l 1
 150 313 l 2
 151 496 299 657 481 673 c 0
 482 673 484 673 485 673 c 0
 503 673 512 659 512 644 c 0
 512 631 504 618 487 616 c 0
537 -2 m 0
 691 11 816 148 817 302 c 2
 817 575 l 1
 710 468 l 2
 706 465 700 463 696 463 c 0
 682 463 670 475 670 488 c 0
 670 493 672 499 674 502 c 0
 731 559 846 674 846 674 c 1
 846 674 960 559 1018 502 c 0
 1021 498 1025 490 1025 484 c 0
 1025 478 1021 470 1018 466 c 0
 1014 462 1006 459 1000 459 c 0
 995 459 987 462 983 466 c 2
 874 574 l 1
 874 301 l 2
 874 128 724 -60 540 -60 c 0
 524 -60 511 -48 511 -32 c 1
 511 -19 516 -5 537 -2 c 0
EndSplineSet
Validated: 1
EndChar

StartChar: copy
Encoding: 76 59722 76
Width: 1024
VWidth: 0
HStem: -205 51<155.451 694.549> -31 55<751 873.479> 392 52<551.451 662> 570 48<727.125 836> 590 55<155.451 276 328 498> 768 51<329.451 672>
VStem: 102 52<-153.809 588.893> 276 52<645 767.809> 498 52<445.451 556> 672 55<619.581 730> 696 55<-153.809 -31 24 392> 874 48<25.1074 570>
LayerCount: 3
Fore
SplineSet
905 624 m 2xef90
 918 611 922 597 922 577 c 2
 922 37 l 2
 922 -0 891 -31 853 -31 c 2
 748 -31 l 1
 748 -137 l 2
 748 -174 717 -205 679 -205 c 2
 171 -205 l 2
 133 -205 102 -174 102 -137 c 2
 102 577 l 2
 102 614 133 645 171 645 c 2
 276 645 l 1
 276 751 l 2
 276 788 307 819 345 819 c 2
 710 819 l 1
 905 624 l 2xef90
836 618 m 1xf7d0
 727 730 l 1
 727 635 l 2
 727 624 734 618 744 618 c 2
 836 618 l 1xf7d0
498 590 m 1xefb0
 171 590 l 2
 160 590 154 583 154 573 c 2
 154 -137 l 2
 154 -147 160 -154 171 -154 c 2
 679 -154 l 2
 689 -154 696 -147 696 -137 c 2
 696 392 l 1
 567 392 l 2
 529 392 498 423 498 461 c 2
 498 590 l 1xefb0
550 464 m 2
 550 454 556 444 570 444 c 2
 662 444 l 1
 550 556 l 1
 550 464 l 2
874 41 m 1
 870 570 l 1
 741 570 l 2
 703 570 672 601 672 638 c 2
 672 768 l 1xf7d0
 345 768 l 2
 335 768 328 761 328 751 c 2
 328 642 l 1
 536 642 l 1
 730 447 l 2
 744 437 751 416 751 399 c 2
 751 24 l 1
 857 24 l 2
 867 24 874 31 874 41 c 1
EndSplineSet
Validated: 1
EndChar

StartChar: shortucts
Encoding: 77 59723 77
Width: 1024
VWidth: 0
HStem: 8 49<54.4219 969.578> 133 49<267 757> 246 49<187 236 307 356 427 476 548 597 668 717 788 837> 326 49<187 236 307 356 427 476 548 597 668 717 788 837> 407 48<187 236 307 356 427 476 548 597 668 717 788 837> 557 49<54.4219 969.578>
VStem: 0 49<62.8438 551.156> 187 49<246 295 326 375 407 455> 307 49<246 295 326 375 407 455> 427 49<246 295 326 375 407 455> 548 49<246 295 326 375 407 455> 668 49<246 295 326 375 407 455> 788 49<246 295 326 375 407 455> 975 49<62.8438 551.156>
LayerCount: 3
Fore
SplineSet
476 455 m 1
 476 407 l 1
 427 407 l 1
 427 455 l 1
 476 455 l 1
597 455 m 1
 597 407 l 1
 548 407 l 1
 548 455 l 1
 597 455 l 1
717 455 m 1
 717 407 l 1
 668 407 l 1
 668 455 l 1
 717 455 l 1
837 455 m 1
 837 407 l 1
 788 407 l 1
 788 455 l 1
 837 455 l 1
356 455 m 1
 356 407 l 1
 307 407 l 1
 307 455 l 1
 356 455 l 1
236 455 m 1
 236 407 l 1
 187 407 l 1
 187 455 l 1
 236 455 l 1
476 375 m 1
 476 326 l 1
 427 326 l 1
 427 375 l 1
 476 375 l 1
597 375 m 1
 597 326 l 1
 548 326 l 1
 548 375 l 1
 597 375 l 1
717 375 m 1
 717 326 l 1
 668 326 l 1
 668 375 l 1
 717 375 l 1
837 375 m 1
 837 326 l 1
 788 326 l 1
 788 375 l 1
 837 375 l 1
356 375 m 1
 356 326 l 1
 307 326 l 1
 307 375 l 1
 356 375 l 1
236 375 m 1
 236 326 l 1
 187 326 l 1
 187 375 l 1
 236 375 l 1
476 295 m 1
 476 246 l 1
 427 246 l 1
 427 295 l 1
 476 295 l 1
597 295 m 1
 597 246 l 1
 548 246 l 1
 548 295 l 1
 597 295 l 1
717 295 m 1
 717 246 l 1
 668 246 l 1
 668 295 l 1
 717 295 l 1
837 295 m 1
 837 246 l 1
 788 246 l 1
 788 295 l 1
 837 295 l 1
356 295 m 1
 356 246 l 1
 307 246 l 1
 307 295 l 1
 356 295 l 1
236 295 m 1
 236 246 l 1
 187 246 l 1
 187 295 l 1
 236 295 l 1
267 133 m 1
 267 182 l 1
 757 182 l 1
 757 133 l 1
 267 133 l 1
935 8 m 2
 89 8 l 2
 40 8 0 48 0 98 c 2
 0 516 l 2
 0 566 40 606 89 606 c 2
 935 606 l 2
 984 606 1024 566 1024 516 c 2
 1024 98 l 2
 1024 48 984 8 935 8 c 2
89 557 m 2
 67 557 49 539 49 516 c 2
 49 98 l 2
 49 75 67 57 89 57 c 2
 935 57 l 2
 957 57 975 75 975 98 c 2
 975 516 l 2
 975 539 957 557 935 557 c 2
 89 557 l 2
EndSplineSet
Validated: 1
EndChar

StartChar: warning
Encoding: 78 59724 78
Width: 1024
VWidth: 0
HStem: -208 63<375.39 648.842> 55 116<466.578 556.338> 751 65<375.39 642.363>
VStem: 0 65<167.021 434.049> 453 117<68.5779 157.422 407.01 546.502> 960 64<167.021 434.049>
LayerCount: 3
Fore
SplineSet
453 113 m 0
 453 144 480 171 511 171 c 0
 543 171 570 144 570 113 c 0
 570 82 543 55 511 55 c 0
 480 55 453 82 453 113 c 0
512 -208 m 0
 229 -208 0 22 0 304 c 0
 0 587 229 816 512 816 c 0
 795 816 1024 587 1024 304 c 0
 1024 22 795 -208 512 -208 c 0
512 751 m 0
 265 751 65 550 65 303 c 0
 65 56 265 -145 512 -145 c 0
 760 -145 960 56 960 303 c 0
 960 550 758 751 512 751 c 0
508 227 m 2
 488 227 471 243 470 263 c 2
 457 512 l 2
 457 514 l 0
 457 535 474 552 495 552 c 2
 529 552 l 2
 551 552 568 535 568 514 c 0
 568 512 l 2
 555 262 l 2
 554 243 537 227 517 227 c 2
 508 227 l 2
EndSplineSet
Validated: 1
EndChar

StartChar: transfer_audio
Encoding: 79 59725 79
Width: 1024
VWidth: 0
HStem: 151 54<75.1877 247> 284 47<643.072 916> 409 54<75.1877 247>
VStem: 17 55<209.188 404.812> 531 55<-56 668>
LayerCount: 3
Fore
SplineSet
558 -149 m 0
 552 -149 543 -145 539 -140 c 2
 247 151 l 1
 109 151 l 2
 58 151 17 192 17 243 c 2
 17 371 l 2
 17 422 58 463 109 463 c 2
 247 463 l 1
 539 754 l 2
 543 759 552 762 558 762 c 0
 574 762 586 750 586 735 c 2
 586 -121 l 2
 586 -136 574 -149 558 -149 c 0
109 409 m 2
 89 409 72 393 72 373 c 2
 72 241 l 2
 72 221 89 205 109 205 c 2
 259 205 l 2
 265 205 274 201 278 196 c 2
 531 -56 l 1
 531 668 l 1
 278 416 l 2
 274 411 265 408 259 408 c 2
 109 409 l 2
1007 307 m 1
 865 165 l 2
 861 161 853 158 848 158 c 0
 834 158 823 168 823 182 c 0
 823 187 827 195 830 199 c 2
 916 284 l 1
 667 284 l 2
 654 284 643 295 643 308 c 0
 643 321 654 331 667 331 c 2
 917 331 l 1
 831 417 l 2
 828 420 824 428 824 434 c 0
 824 439 828 447 831 451 c 0
 835 455 843 458 849 458 c 0
 854 458 862 455 866 451 c 2
 1007 307 l 1
EndSplineSet
Validated: 1
EndChar

StartChar: room
Encoding: 80 59726 80
Width: 1024
VWidth: 0
HStem: -79 66<66 958> 476 66<66 958> 559 50<134.127 183.873 234.138 284.873 336.127 385.873> 627 66<66 958>
VStem: 0 66<-13 476 542 627> 134 50<559.127 608.873> 234 51<559.283 608.717> 336 50<559.127 608.873> 958 66<-13 476 541 627>
LayerCount: 3
Fore
SplineSet
58 693 m 2
 966 693 l 2
 998 693 1024 667 1024 635 c 2
 1024 -21 l 2
 1024 -53 998 -79 966 -79 c 1
 58 -79 l 2
 26 -79 0 -53 0 -21 c 2
 0 635 l 2
 0 667 26 693 58 693 c 2
958 476 m 1
 66 476 l 1
 66 -13 l 1
 958 -13 l 1
 958 476 l 1
66 542 m 1
 958 541 l 1
 958 627 l 1
 66 627 l 1
 66 542 l 1
134 584 m 0
 134 598 145 609 159 609 c 0
 173 609 184 598 184 584 c 0
 184 570 173 559 159 559 c 0
 145 559 134 570 134 584 c 0
234 584 m 0
 234 598 246 609 260 609 c 0
 274 609 285 598 285 584 c 0
 285 570 274 559 260 559 c 0
 246 559 234 570 234 584 c 0
336 584 m 0
 336 598 347 609 361 609 c 0
 375 609 386 598 386 584 c 0
 386 570 375 559 361 559 c 0
 347 559 336 570 336 584 c 0
EndSplineSet
Validated: 1
EndChar

StartChar: new_file
Encoding: 81 59727 81
Width: 1024
VWidth: 0
HStem: -205 62<209.405 866.261> 205 57<380.779 508 566 693.159> 516 64<690.739 824> 756 63<209.739 627>
VStem: 146 62<-142.722 755.261> 508 58<74.914 205 262 389.987> 627 62<581.786 713> 868 62<-141.261 516>
LayerCount: 3
Fore
SplineSet
537 74 m 0
 521 74 508 87 508 103 c 2
 508 205 l 1
 406 205 l 2
 391 206 380 219 380 233 c 0
 380 248 391 261 406 262 c 2
 508 262 l 1
 508 365 l 2
 509 379 522 391 537 391 c 0
 551 391 564 379 566 365 c 2
 566 262 l 1
 668 262 l 2
 682 261 694 248 694 233 c 0
 694 219 682 206 668 205 c 2
 566 205 l 1
 566 102 l 2
 565 87 552 74 537 74 c 0
905 585 m 2
 919 572 930 545 930 525 c 2
 930 -120 l 2
 930 -167 892 -205 845 -205 c 2
 231 -205 l 2
 183 -205 146 -167 146 -119 c 2
 146 734 l 2
 146 781 184 819 231 819 c 2
 671 819 l 1
 905 585 l 2
689 713 m 1
 689 603 l 2
 689 590 699 580 712 580 c 2
 824 580 l 1
 689 713 l 1
845 -143 m 0
 858 -143 868 -133 868 -120 c 2
 868 516 l 1
 712 516 l 2
 665 516 627 554 627 601 c 2
 627 756 l 1
 231 756 l 2
 218 756 208 745 208 733 c 2
 208 -120 l 2
 208 -133 218 -143 231 -143 c 2
 845 -143 l 0
EndSplineSet
Validated: 1
EndChar

StartChar: pointer
Encoding: 82 59728 82
Width: 1024
VWidth: 0
VStem: 145 67<-93 351.416> 158 67<268.584 713>
LayerCount: 3
Fore
SplineSet
179 -185 m 1x80
 160 -177 145 -155 145 -135 c 0
 145 -134 145 -133 145 -133 c 2x80
 158 749 l 2x40
 160 777 184 800 212 800 c 0
 224 800 241 793 250 785 c 2
 864 153 l 2
 872 144 879 128 879 116 c 0
 879 86 855 62 825 62 c 0
 824 62 821 62 819 63 c 2
 465 108 l 1
 239 -168 l 2
 229 -181 214 -187 197 -187 c 0
 191 -187 185 -186 179 -185 c 1x80
225 713 m 1x40
 212 -93 l 1x80
 417 158 l 2
 426 169 445 177 459 177 c 0
 461 177 464 177 466 177 c 2
 787 136 l 1
 225 713 l 1x40
EndSplineSet
Validated: 1
EndChar

StartChar: star
Encoding: 83 59729 83
Width: 1024
VWidth: 0
LayerCount: 3
Fore
SplineSet
243 -164 m 0
 210 -163 183 -136 183 -103 c 0
 183 -101 184 -96 184 -93 c 2
 230 175 l 1
 34 365 l 2
 24 375 16 394 16 408 c 0
 16 437 39 464 68 467 c 2
 337 506 l 1
 458 751 l 2
 467 769 491 785 512 785 c 1
 533 785 557 770 566 751 c 2
 686 507 l 1
 956 467 l 2
 985 464 1008 437 1008 408 c 0
 1008 394 1000 374 990 365 c 2
 795 175 l 1
 841 -94 l 2
 841 -96 842 -101 842 -104 c 0
 842 -137 815 -164 782 -164 c 0
 774 -164 761 -161 754 -157 c 2
 515 -31 l 1
 274 -157 l 2
 266 -162 253 -164 243 -164 c 0
540 22 m 2
 781 -104 l 1
 736 164 l 2
 735 167 735 172 735 175 c 0
 735 189 743 208 753 218 c 2
 948 407 l 1
 678 448 l 2
 661 450 640 466 633 482 c 2
 512 724 l 1
 391 480 l 2
 384 464 363 449 346 446 c 2
 77 409 l 1
 271 219 l 2
 281 209 289 190 289 176 c 0
 289 173 289 169 288 166 c 2
 242 -103 l 1
 484 23 l 1
 492 26 502 28 512 28 c 0
 522 28 532 26 540 22 c 2
EndSplineSet
Validated: 1
EndChar

StartChar: star_filled
Encoding: 84 59730 84
Width: 1024
VWidth: 0
LayerCount: 3
Fore
SplineSet
243 -167 m 0
 210 -166 183 -139 183 -106 c 0
 183 -104 184 -99 184 -96 c 2
 230 170 l 1
 34 362 l 2
 24 371 16 391 16 404 c 0
 16 433 40 460 68 464 c 2
 337 503 l 5
 458 747 l 2
 467 766 491 781 512 781 c 1
 533 781 557 766 566 747 c 2
 686 504 l 1
 956 464 l 2
 984 460 1008 433 1008 404 c 0
 1008 391 1000 371 990 362 c 2
 794 170 l 1
 840 -98 l 2
 840 -101 841 -105 841 -108 c 0
 841 -125 830 -147 816 -157 c 0
 807 -163 792 -168 781 -168 c 0
 773 -168 760 -165 753 -161 c 2
 512 -34 l 1
 271 -161 l 2
 264 -164 252 -167 244 -167 c 0
 243 -167 l 0
EndSplineSet
Validated: 1
EndChar

StartChar: desktop_off
Encoding: 85 59731 85
Width: 1024
VWidth: 0
HStem: -75 48<292.072 394 439 586 632 731.928> 32 47<152.575 191 312 394 439 585 632 872.914> 611 47<152.649 791>
VStem: 102 50<80.0911 609.909> 394 45<-27 32> 586 46<-27 32> 874 48<80.5181 608.856>
LayerCount: 3
Fore
SplineSet
928 707 m 0
 932 703 935 695 935 689 c 0
 935 683 931 675 927 671 c 2
 898 643 l 2
 911 631 921 609 922 592 c 2
 922 98 l 2
 921 63 891 33 855 32 c 2
 632 32 l 1
 632 -27 l 1
 657 -27 683 -27 708 -27 c 0
 721 -27 732 -38 732 -51 c 0
 732 -64 721 -75 708 -75 c 2
 316 -75 l 2
 303 -75 292 -64 292 -51 c 0
 292 -38 303 -27 316 -27 c 0
 342 -27 368 -27 394 -27 c 1
 394 33 l 1
 266 33 l 1
 135 -93 l 2
 131 -97 123 -101 117 -101 c 0
 111 -101 103 -97 99 -93 c 0
 95 -89 91 -81 91 -75 c 0
 91 -69 95 -61 99 -57 c 2
 191 32 l 1
 171 32 l 0
 134 32 103 62 102 98 c 2
 102 592 l 2
 104 628 134 658 171 658 c 2
 840 658 l 1
 892 707 l 2
 896 711 904 715 910 715 c 0
 916 715 924 711 928 707 c 0
171 79 m 2
 239 79 l 1
 791 611 l 1
 171 611 l 2
 160 611 152 602 152 592 c 2
 152 98 l 2
 152 88 160 79 171 79 c 2
586 -28 m 1
 585 32 l 1
 439 32 l 1
 439 -28 l 1
 586 -28 l 1
874 592 m 0
 874 599 869 606 863 609 c 2
 312 79 l 1
 855 79 l 2
 866 79 874 88 874 98 c 2
 874 592 l 0
EndSplineSet
Validated: 1
EndChar

StartChar: minus
Encoding: 86 59732 86
Width: 1024
VWidth: 0
HStem: 262 90<51.7132 972.287>
LayerCount: 3
Fore
SplineSet
934 352 m 2
 958 352 979 332 979 307 c 0
 979 282 958 262 934 262 c 2
 90 262 l 2
 66 262 45 283 45 307 c 0
 45 332 66 352 90 352 c 2
 934 352 l 2
EndSplineSet
Validated: 1
EndChar

StartChar: download_off
Encoding: 87 59733 87
Width: 1024
VWidth: 0
Flags: HM
VStem: 120.149 62.123<33.9336 755.497> 481.621 60.7578<94.0078 235.661 393.016 446.032> 601.088 62.123<581.484 713.187> 841.728 62.123<-141.497 516.579>
LayerCount: 3
Fore
SplineSet
990 792 m 0
 995 787 1000 776 1000 768 c 0
 1000 760 995 749 990 744 c 2
 855 609 l 1
 879 585 l 2
 893 572 904 545 904 525 c 2
 904 -120 l 2
 904 -167 866 -205 819 -205 c 2
 205 -205 l 2
 161 -205 123 -169 121 -125 c 2
 68 -178 l 2
 62 -183 52 -188 44 -188 c 0
 36 -188 25 -183 20 -178 c 0
 14 -173 10 -162 10 -154 c 0
 10 -146 14 -135 20 -130 c 2
 120 -29 l 1
 120 734 l 2
 120 781 158 819 205 819 c 2
 645 819 l 1
 807 656 l 1
 942 792 l 2
 947 798 958 802 966 802 c 0
 974 802 984 798 990 792 c 0
663 713 m 1
 663 603 l 2
 663 590 673 580 686 580 c 2
 729 580 l 1
 763 614 l 1
 663 713 l 1
182 734 m 2
 182 34 l 1
 323 172 l 1
 322 175 321 180 321 183 c 0
 321 200 334 213 351 213 c 0
 354 213 359 212 362 211 c 2
 483 332 l 1
 483 417 l 2
 483 434 497 448 513 448 c 0
 530 448 544 434 544 417 c 2
 544 393 l 1
 669 518 l 2
 632 526 601 563 601 601 c 2
 601 757 l 1
 205 757 l 2
 192 757 182 747 182 734 c 2
482 236 m 1
 410 165 l 1
 482 94 l 1
 482 236 l 1
842 517 m 1
 763 517 l 1
 542 296 l 1
 542 94 l 1
 653 204 l 2
 658 209 667 213 674 213 c 0
 681 213 691 209 696 204 c 0
 701 199 705 190 705 183 c 0
 705 176 701 166 696 161 c 2
 512 -22 l 1
 368 122 l 1
 182 -64 l 1
 182 -120 l 2
 182 -133 192 -143 205 -143 c 2
 819 -143 l 2
 832 -143 842 -133 842 -120 c 2
 842 517 l 1
EndSplineSet
Validated: 1
EndChar

StartChar: popout_window
Encoding: 88 59734 88
Width: 1024
VWidth: 0
HStem: -205 78<76.3 809.711> 606 74<76.3 646> 746 73<678.317 899>
VStem: 0 76<-126.547 605.837> 811 76<-126.547 441> 950 74<469.181 694>
LayerCount: 3
Fore
SplineSet
811 -120 m 2
 811 441 l 1
 887 441 l 1
 887 -120 l 2
 887 -167 848 -205 801 -205 c 2
 85 -205 l 2
 38 -205 0 -167 0 -120 c 2
 0 595 l 2
 0 642 38 680 85 680 c 2
 646 681 l 1
 646 606 l 1
 458 606 271 606 84 606 c 0
 80 606 76 602 76 598 c 0
 76 359 76 120 76 -120 c 0
 76 -124 80 -127 84 -127 c 0
 323 -127 564 -127 803 -127 c 0
 807 -127 811 -124 811 -120 c 2
1024 819 m 1
 1024 714 1024 608 1024 503 c 0
 1024 482 1007 466 987 466 c 0
 967 466 950 482 950 503 c 0
 950 566 951 631 951 694 c 1
 676 420 l 2
 670 412 657 406 647 406 c 0
 627 406 611 423 611 443 c 0
 611 452 617 465 624 471 c 2
 899 746 l 1
 711 746 l 2
 692 746 675 763 675 783 c 0
 675 803 691 819 711 819 c 2
 1024 819 l 1
EndSplineSet
Validated: 1
EndChar

StartChar: closed_caption
Encoding: 89 59735 89
Width: 1024
VWidth: 0
HStem: -46 72<279.673 388.316 643.566 775.063> 236 115<361.301 489 799.527 927> 556 104<225.586 805.964>
VStem: -0 85<163.377 419.758> 217 148<179.108 236 351 400.553> 492 32<181.25 236 351 402.016> 656 147<178.588 236 351 396.875> 930 94<143.122 236 351 437.072>
LayerCount: 3
Fore
SplineSet
977 596 m 0
 1016 546 1024 472 1024 307 c 0
 1024 142 1016 70 977 20 c 0
 968 9 958 0 945 -6 c 0
 908 -33 739 -46 538 -46 c 0
 531 -46 523 -46 516 -46 c 0
 307 -44 117 -34 80 -6 c 0
 67 -0 56 8 46 19 c 0
 11 64 -0 130 -0 269 c 0
 -0 281 -0 294 0 307 c 0
 2 473 8 546 45 596 c 0
 54 607 66 616 79 621 c 0
 117 648 307 660 516 660 c 0
 726 660 907 648 945 621 c 0
 958 615 968 606 977 596 c 0
299 26 m 0
 405 26 480 105 492 236 c 1
 365 236 l 2
 359 187 339 150 297 150 c 0
 230 150 217 216 217 287 c 0
 217 384 245 434 292 434 c 0
 333 434 359 404 363 351 c 2
 489 351 l 1
 478 480 409 556 286 556 c 0
 174 556 85 455 85 292 c 0
 85 128 166 26 299 26 c 0
738 26 m 0
 844 26 918 105 930 236 c 1
 803 236 l 2
 798 187 778 150 735 150 c 0
 668 150 656 216 656 287 c 0
 656 384 689 434 730 434 c 0
 772 434 798 404 802 351 c 2
 927 351 l 1
 916 480 848 556 725 556 c 0
 612 556 524 455 524 292 c 0
 524 128 605 26 738 26 c 0
EndSplineSet
Validated: 1
EndChar

StartChar: alert
Encoding: 90 59736 90
Width: 1024
VWidth: 0
HStem: -206 111<473.956 550.044> -58 72<142 882> 160 74<478.336 545.664> 673 71<392.141 475 549 632.535>
VStem: 139 73<183.266 507.342> 475 74<163.336 230.664 357.984 522.345 742.151 815.152> 812 73<181.429 506.774>
CounterMasks: 1 0e
LayerCount: 3
Fore
SplineSet
623 -95 m 2
 623 -157 573 -206 512 -206 c 0
 451 -206 401 -157 401 -95 c 2
 623 -95 l 2
549 782 m 2
 549 744 l 1
 734 728 881 592 885 423 c 1
 885 360 l 2
 885 290 903 179 925 113 c 1
 952 34 l 2
 954 28 956 17 956 10 c 0
 956 -27 926 -58 888 -58 c 2
 137 -58 l 2
 99 -58 68 -27 68 10 c 2
 68 12 l 2
 68 18 70 28 72 34 c 1
 99 114 l 2
 121 180 139 291 139 362 c 1
 139 424 l 2
 143 592 289 728 475 744 c 1
 475 782 l 18
 475 806 494 818 512 818 c 0
 530 818 549 806 549 782 c 2
512 673 m 2
 506 673 l 2
 344 670 215 558 212 422 c 1
 212 360 l 2
 211 290 192 168 169 94 c 1
 142 14 l 1
 882 14 l 1
 855 94 l 2
 831 165 812 285 812 360 c 2
 812 421 l 1
 809 560 675 673 512 673 c 2
549 197 m 0
 549 177 532 160 512 160 c 0
 492 160 475 177 475 197 c 0
 475 218 491 234 512 234 c 0
 532 234 549 217 549 197 c 0
549 490 m 2
 549 444 l 1
 535 276 l 1
 489 276 l 1
 475 444 l 1
 475 490 l 2
 475 514 494 525 512 525 c 0
 530 525 549 514 549 490 c 2
EndSplineSet
Validated: 1
EndChar

StartChar: palm_rejection
Encoding: 91 59737 91
Width: 1024
Flags: HMW
LayerCount: 3
Fore
SplineSet
94 208 m 0
 84 208 78 202 78 192 c 0
 78 185 80 175 86 165 c 2
 86 165 121 106 161 41 c 1
 128 9 l 1
 86 79 46 145 46 145 c 1
 37 165 34 182 34 195 c 0
 34 216 42 229 51 238 c 0
 62 251 77 259 94 259 c 0
 123 259 133 250 154 220 c 0
 174 192 189 170 189 170 c 1
 186 521 l 1
 186 522 l 2
 186 544 194 571 211 584 c 0
 228 597 241 601 258 601 c 0
 270 600 295 600 313 581 c 0
 323 571 335 550 335 535 c 2
 335 480 l 1
 346 489 357 493 367 493 c 0
 407 493 439 463 442 423 c 1
 450 426 455 428 465 428 c 0
 486 428 508 418 523 403 c 1
 489 369 l 1
 483 376 474 381 465 381 c 0
 450 381 435 370 435 353 c 2
 435 315 l 1
 389 270 l 1
 390 418 l 2
 390 433 377 443 362 446 c 0
 347 446 335 433 335 418 c 2
 334 236 l 2
 334 226 324 215 314 215 c 2
 310 215 l 2
 299 215 291 225 289 236 c 1
 286 528 l 2
 286 540 270 558 258 558 c 0
 245 558 229 546 229 521 c 2
 229 518 l 1
 232 112 l 1
 198 79 l 1
 191 80 186 84 182 90 c 2
 111 193 l 2
 106 201 102 205 94 208 c 0
558 785 m 0
 569 785 579 783 589 781 c 0
 630 768 663 739 678 700 c 0
 682 691 696 684 723 684 c 0
 745 684 780 689 820 700 c 1
 750 631 l 1
 741 630 732 630 724 630 c 0
 673 630 640 646 625 677 c 0
 617 702 594 730 559 730 c 0
 516 730 447 697 353 631 c 0
 347 627 342 626 336 626 c 0
 321 626 307 639 307 654 c 0
 307 662 311 669 318 675 c 0
 425 749 500 785 558 785 c 0
74 -171 m 0
 59 -171 34 -146 34 -131 c 0
 34 -122 39 -116 39 -116 c 1
 935 779 l 1
 935 779 940 785 949 785 c 0
 956 785 965 782 976 771 c 0
 987 760 990 751 990 744 c 0
 990 735 984 730 984 730 c 1
 89 -166 l 1
 89 -166 83 -171 74 -171 c 0
614 323 m 1
 633 309 646 288 648 263 c 1
 647 2 l 2
 647 -93 569 -171 474 -171 c 2
 334 -171 l 2
 276 -171 227 -134 195 -95 c 1
 228 -63 l 1
 252 -94 291 -126 334 -126 c 2
 474 -126 l 2
 544 -126 599 -70 599 0 c 1
 595 263 l 2
 595 274 588 284 578 288 c 1
 614 323 l 1
540 250 m 1
 539 193 l 1
 539 188 l 2
 539 177 529 167 518 167 c 0
 517 167 515 168 514 168 c 0
 503 168 494 178 494 189 c 2
 494 204 l 1
 540 250 l 1
EndSplineSet
Validated: 1
EndChar

StartChar: volume_off
Encoding: 97 59743 92
Width: 1024
Flags: W
HStem: 167 47<118.203 273> 397 50<118.625 273>
VStem: 68 48<217.203 394.949> 529 49<-20 628>
LayerCount: 3
Fore
SplineSet
933 439 m 0
 946 439 956 429 956 415 c 0
 956 409 954 403 950 398 c 2
 858 307 l 1
 949 216 l 2
 953 211 955 205 955 199 c 0
 955 185 945 175 931 175 c 0
 925 175 919 177 914 182 c 2
 823 273 l 1
 731 182 l 2
 726 177 720 175 714 175 c 0
 700 175 690 185 690 199 c 0
 690 205 693 211 697 216 c 2
 788 307 l 1
 698 399 l 2
 694 404 691 410 691 416 c 0
 691 430 701 440 715 440 c 0
 721 440 727 438 732 433 c 2
 823 341 l 1
 915 432 l 2
 920 437 926 439 933 439 c 0
578 -78 m 0
 578 -90 567 -103 553 -103 c 0
 547 -103 541 -100 536 -95 c 2
 273 167 l 1
 150 167 l 2
 105 167 68 204 68 249 c 2
 68 365 l 2
 68 410 105 447 151 447 c 2
 273 447 l 1
 535 709 l 2
 540 714 546 717 552 717 c 0
 567 717 578 705 578 692 c 2
 578 -78 l 0
150 397 m 2
 131 397 116 382 116 363 c 2
 116 248 l 2
 116 229 131 214 150 214 c 2
 285 214 l 2
 292 214 298 211 302 207 c 2
 529 -20 l 1
 529 628 l 1
 302 405 l 2
 298 400 291 397 284 397 c 2
 150 397 l 2
EndSplineSet
Validated: 1
EndChar

StartChar: volume_level_1
Encoding: 98 59744 93
Width: 1024
Flags: W
HStem: 167 47<204.5 359> 397 50<204.5 359>
VStem: 152 49<217.203 394.949> 614 50<-18 631> 826 47<196.48 422.461>
LayerCount: 3
Fore
SplineSet
793 522 m 0
 802 522 809 517 813 510 c 0
 849 452 871 383 873 310 c 0
 871 237 850 169 814 111 c 0
 810 104 802 99 794 99 c 0
 780 99 770 109 770 122 c 0
 770 126 771 130 773 133 c 0
 805 185 824 245 826 310 c 0
 824 375 804 436 772 487 c 0
 770 491 769 494 769 499 c 0
 769 511 780 522 793 522 c 0
639 -103 m 0
 632 -103 626 -100 621 -95 c 2
 359 167 l 1
 235 167 l 2
 189 167 152 204 152 249 c 2
 152 365 l 2
 152 410 189 447 235 447 c 2
 359 447 l 1
 621 709 l 2
 626 714 632 717 639 717 c 0
 653 717 664 705 664 692 c 2
 664 -78 l 2
 664 -91 654 -103 639 -103 c 0
235 397 m 2
 216 397 201 382 201 363 c 2
 201 248 l 2
 201 229 216 214 235 214 c 2
 370 214 l 2
 376 214 383 211 387 207 c 2
 614 -18 l 1
 614 631 l 1
 387 404 l 2
 383 399 377 396 370 396 c 2
 235 397 l 2
EndSplineSet
Validated: 1
EndChar

StartChar: volume_level_2
Encoding: 99 59745 94
Width: 1024
Flags: W
HStem: 167 47<132.625 289> 397 50<132.625 289>
VStem: 82 48<217.203 393.079> 544 50<-20 628> 756 47<198.03 422.461> 895 48<163.148 456.258>
LayerCount: 3
Fore
SplineSet
722 522 m 0
 731 522 739 517 743 510 c 0
 779 452 801 383 803 310 c 0
 801 237 779 169 744 111 c 0
 740 104 732 99 723 99 c 0
 709 99 700 109 700 122 c 0
 700 126 701 130 702 133 c 0
 735 185 754 245 756 310 c 0
 754 375 734 436 702 487 c 0
 700 491 699 494 699 499 c 0
 699 510 710 522 722 522 c 0
832 -4 m 0
 819 -4 808 7 808 20 c 0
 808 25 809 30 812 34 c 0
 865 113 895 208 895 310 c 0
 895 412 865 508 812 587 c 0
 810 590 809 594 809 598 c 0
 809 611 820 622 833 622 c 0
 841 622 848 618 852 611 c 0
 909 525 943 421 943 309 c 0
 943 198 909 93 852 6 c 0
 848 -0 840 -4 832 -4 c 0
594 -78 m 0
 594 -91 583 -103 568 -103 c 0
 562 -103 555 -100 551 -95 c 2
 289 167 l 1
 165 167 l 2
 119 167 82 204 82 249 c 2
 82 365 l 2
 82 410 119 447 165 447 c 2
 289 447 l 1
 551 709 l 2
 555 714 562 717 568 717 c 0
 583 717 594 705 594 692 c 2
 594 -78 l 0
165 397 m 2
 146 397 130 382 130 363 c 2
 130 248 l 2
 130 229 146 214 165 214 c 2
 300 214 l 2
 306 214 312 211 317 207 c 2
 544 -20 l 1
 544 628 l 1
 317 405 l 2
 312 400 306 397 299 397 c 2
 165 397 l 2
EndSplineSet
Validated: 1
EndChar

StartChar: volume_level_3
Encoding: 100 59746 95
Width: 1024
Flags: W
HStem: 166 47<58.2031 214> 396 50<58.2031 214>
VStem: 8 48<216.203 393.5> 468 50<-21 628> 680 45<198.638 419.536> 819 46<161.008 453.234> 970 47<149.219 466.332>
LayerCount: 3
Fore
SplineSet
647 520 m 0
 655 520 663 515 667 508 c 0
 703 449 724 380 725 307 c 0
 723 235 702 167 666 109 c 0
 662 102 655 97 646 97 c 0
 632 97 622 107 622 120 c 0
 622 124 623 128 625 131 c 0
 657 182 677 243 680 307 c 1
 678 372 658 433 626 484 c 0
 623 488 622 492 622 496 c 0
 622 509 632 520 647 520 c 0
733 595 m 0
 733 608 743 619 756 619 c 0
 764 619 771 615 775 609 c 0
 832 522 865 419 865 308 c 0
 865 196 832 92 775 5 c 0
 771 -1 763 -5 755 -5 c 0
 743 -5 732 6 732 18 c 0
 732 23 734 28 736 32 c 0
 788 110 819 205 819 307 c 0
 819 408 788 504 736 583 c 0
 734 586 733 591 733 595 c 0
854 -103 m 0
 842 -103 831 -92 831 -80 c 0
 831 -74 833 -69 836 -65 c 0
 920 37 970 167 970 308 c 0
 970 448 921 578 838 679 c 0
 835 683 833 688 833 694 c 0
 833 706 844 717 857 717 c 0
 864 717 871 714 875 708 c 0
 964 599 1017 460 1017 309 c 0
 1017 156 963 15 872 -94 c 0
 868 -100 862 -103 854 -103 c 0
518 -78 m 2
 518 -91 507 -103 493 -103 c 0
 486 -103 480 -100 476 -95 c 2
 214 166 l 1
 90 166 l 2
 45 166 8 203 8 248 c 2
 8 363 l 2
 8 409 45 446 90 446 c 2
 214 446 l 1
 476 707 l 2
 480 712 486 714 493 714 c 0
 508 714 518 703 518 690 c 2
 518 -78 l 2
90 396 m 2
 72 396 56 381 56 362 c 2
 56 247 l 2
 56 228 72 213 90 213 c 2
 225 213 l 2
 231 213 238 210 242 206 c 2
 468 -21 l 1
 468 628 l 1
 242 403 l 2
 238 399 231 396 225 396 c 2
 90 396 l 2
EndSplineSet
Validated: 1
EndChar

StartChar: no_audio
Encoding: 101 59747 96
Width: 1024
Flags: W
HStem: 144 59<94.3584 191> 410 59<93.4974 271>
VStem: 34 55<206.238 404.19> 565 56<-68 437 576 682> 791 53<154.787 396.901> 953 53<116.616 432.679>
LayerCount: 3
Fore
SplineSet
760 673 m 0
 765 667 767 660 767 653 c 0
 767 644 764 637 758 631 c 2
 621 495 l 1
 621 -137 l 0
 621 -149 614 -159 603 -163 c 0
 600 -165 597 -165 593 -165 c 0
 585 -165 578 -162 572 -157 c 2
 271 145 l 1
 66 -60 l 2
 61 -65 54 -68 46 -68 c 0
 30 -68 17 -56 17 -40 c 0
 17 -32 20 -25 26 -20 c 2
 191 144 l 1
 129 144 l 2
 77 144 34 186 34 239 c 2
 34 374 l 2
 34 426 76 468 128 469 c 2
 271 469 l 1
 573 771 l 2
 578 776 585 779 593 779 c 0
 597 779 601 778 604 777 c 0
 615 773 622 763 622 751 c 2
 622 576 l 1
 719 673 l 2
 724 678 732 681 740 681 c 0
 747 681 755 678 760 673 c 0
153 203 m 0
 248 203 l 1
 565 518 l 1
 565 682 l 1
 303 418 l 2
 298 413 291 410 283 410 c 2
 128 410 l 2
 107 410 90 393 89 372 c 2
 89 239 l 2
 90 221 104 206 121 203 c 0
 123 203 125 203 128 203 c 0
 153 203 l 0
565 -68 m 1
 565 437 l 1
 312 184 l 1
 565 -68 l 1
738 515 m 1
 742 518 747 519 753 519 c 0
 763 519 771 514 776 506 c 0
 817 439 842 359 844 275 c 0
 842 192 817 113 776 46 c 0
 771 38 762 33 752 33 c 0
 747 33 742 34 738 37 c 1
 731 42 726 50 726 59 c 0
 726 63 728 67 729 71 c 0
 767 131 789 201 791 276 c 0
 789 351 766 421 729 481 c 0
 727 484 726 488 726 493 c 0
 726 502 731 510 738 515 c 1
853 -59 m 0
 853 -54 855 -49 857 -44 c 0
 862 -38 866 -31 870 -25 c 0
 923 62 953 165 953 274 c 0
 953 392 918 502 857 593 c 0
 855 598 853 603 853 608 c 0
 853 617 857 625 864 630 c 1
 868 633 873 635 879 635 c 0
 888 635 896 630 901 623 c 0
 967 523 1006 403 1006 275 c 0
 1006 146 967 25 901 -75 c 0
 896 -82 888 -86 879 -86 c 0
 875 -86 871 -85 867 -83 c 0
 866 -83 865 -82 864 -81 c 1
 857 -76 853 -68 853 -59 c 0
EndSplineSet
Validated: 1
EndChar

StartChar: no_palm_rejection
Encoding: 92 59738 97
Width: 1024
HStem: -171 45<272.611 544.312> 208 51<78.7095 115.438> 290 48<545.14 594.549> 381 47<439.023 493.468> 446 47<336.031 388.518> 558 43<231.832 283.655> 630 54<677.092 843.758> 698 50<927.396 989.191> 730 55<481.425 607.343>
VStem: 34 44<155.702 207.835> 186 43<170 556.375> 286 49<215.071 445.548 480 556.709> 389 45<215 379.68> 494 45<167.347 289.155 333 379.915> 599 48<-68.9615 287.882>
LayerCount: 3
Fore
SplineSet
573 338 m 0xfe7e
 613 335 645 303 648 263 c 1
 647 2 l 2
 647 -93 569 -171 474 -171 c 2
 334 -171 l 2
 264 -171 207 -119 177 -71 c 0
 122 17 46 145 46 145 c 1
 37 165 34 182 34 195 c 0
 34 216 42 229 51 238 c 0
 62 251 77 259 94 259 c 0
 123 259 133 250 154 220 c 0
 174 192 189 170 189 170 c 1
 186 521 l 1
 186 522 l 2
 186 544 194 571 211 584 c 0
 228 597 240 601 257 601 c 0
 270 601 294 600 313 581 c 0
 323 571 335 550 335 535 c 2
 335 480 l 1
 346 489 357 493 367 493 c 0
 407 493 439 463 442 423 c 1
 450 426 455 428 465 428 c 0
 505 428 545 393 545 353 c 2
 545 333 l 1
 553 336 563 338 573 338 c 0xfe7e
94 208 m 0
 84 208 78 202 78 192 c 0
 78 185 80 175 86 165 c 2
 86 165 159 40 217 -48 c 0
 240 -83 284 -126 334 -126 c 2
 474 -126 l 2
 544 -126 599 -70 599 0 c 1
 595 263 l 2
 595 278 583 290 568 290 c 0
 553 290 540 278 540 263 c 2
 539 193 l 1
 539 188 l 2
 539 177 529 167 518 167 c 0
 517 167 515 168 514 168 c 0
 503 168 494 178 494 189 c 2
 494 193 l 1
 495 353 l 2
 495 368 480 381 465 381 c 0
 450 381 435 370 435 353 c 2
 434 236 l 2
 434 226 424 215 414 215 c 2
 410 215 l 2
 399 215 391 225 389 236 c 1
 390 418 l 2
 390 433 377 443 362 446 c 0
 347 446 335 433 335 418 c 2
 334 236 l 2
 334 226 324 215 314 215 c 2
 310 215 l 2
 299 215 291 225 289 236 c 1
 286 528 l 2
 286 540 270 558 258 558 c 0
 245 558 229 546 229 521 c 2
 229 518 l 1
 232 105 l 2
 232 90 220 78 204 78 c 0
 195 78 187 82 182 90 c 2
 111 193 l 2
 106 201 102 205 94 208 c 0
723 684 m 0
 799 684 894 722 955 748 c 1
 959 748 l 2
 976 748 990 735 990 719 c 0
 990 711 986 703 980 698 c 0xff7e
 910 668 814 630 724 630 c 0
 673 630 640 646 625 677 c 1
 617 703 594 730 559 730 c 0
 516 730 447 697 353 631 c 0
 348 628 342 626 335 626 c 0
 318 626 307 640 307 654 c 0
 307 663 312 670 318 675 c 0
 425 749 500 785 558 785 c 0xfefe
 569 785 579 783 589 781 c 0
 630 768 663 739 678 700 c 0
 682 691 696 684 723 684 c 0
EndSplineSet
Validated: 1
EndChar

StartChar: device_list_selector
Encoding: 93 59739 98
Width: 1024
LayerCount: 3
Fore
SplineSet
2 524 m 0
 2 548 18 564 42 564 c 0
 52 564 62 562 70 554 c 2
 518 158 l 1
 958 554 l 2
 966 562 974 566 982 566 c 0
 994 566 1006 560 1016 550 c 0
 1024 542 1026 534 1026 526 c 0
 1026 514 1020 502 1012 492 c 2
 518 50 l 1
 16 492 l 2
 6 502 2 514 2 524 c 0
EndSplineSet
Validated: 1
EndChar

StartChar: presentation_off
Encoding: 94 59740 99
Width: 1024
HStem: 68 68<82 122 196.25 217.434 297 427 601 940> 563 68<82 674 751.286 773.663 846 940> 737 65<82 868>
VStem: 17 65<136 563 631 737> 481 65<-192.717 31> 940 70<136 563 631 715>
LayerCount: 3
Fore
SplineSet
218 -188 m 0
 202 -188 189 -179 189 -162 c 0
 189 -151 194 -139 205 -130 c 2
 427 68 l 1
 221 68 l 1
 205 53 187 38 173 25 c 0
 77 -62 60 -70 53 -70 c 0
 52 -70 51 -70 50 -70 c 0
 34 -68 16 -53 16 -34 c 0
 16 -30 17 -27 18 -23 c 0
 20 -17 38 -5 122 68 c 1
 51 68 l 2
 31 68 17 82 17 102 c 2
 17 768 l 2
 17 788 31 802 51 802 c 2
 941 802 l 1
 982 839 981 839 986 840 c 0
 987 840 l 0
 1005 840 1019 816 1019 796 c 0
 1019 794 1019 792 1019 790 c 0
 1019 788 1018 787 1008 777 c 0
 1009 774 1010 771 1010 768 c 2
 1010 106 l 2
 1010 86 996 71 976 71 c 2
 601 71 l 1
 823 -130 l 2
 831 -137 840 -150 840 -163 c 0
 840 -179 827 -189 810 -189 c 0
 798 -189 786 -185 778 -178 c 2
 546 31 l 1
 546 -159 l 2
 546 -178 535 -195 514 -195 c 0
 497 -195 481 -179 481 -159 c 2
 481 31 l 1
 461 12 285 -143 245 -179 c 0
 239 -184 229 -188 218 -188 c 0
82 631 m 1
 749 631 l 1
 789 666 832 705 868 737 c 1
 82 737 l 1
 82 631 l 1
940 715 m 1
 917 694 886 667 846 631 c 1
 940 631 l 1
 940 715 l 1
82 563 m 1
 82 136 l 1
 198 136 l 1
 334 258 518 424 674 563 c 1
 82 563 l 1
771 563 m 1
 633 439 447 271 297 136 c 1
 940 136 l 1
 940 563 l 1
 771 563 l 1
EndSplineSet
Validated: 1
EndChar

StartChar: external_video
Encoding: 95 59741 100
Width: 1024
HStem: -93 47<76.4248 254 301 490 536 720 767 943.115> 38 47<61 254 301 490 536 720 767 952> 497 47<61 254 301 490 536 720 767 952> 628 47<70.3859 254 301 490 536 720 767 943.115>
VStem: 14 47<-30.5752 38 85 497 544 618.614> 254 47<-46 38 544 628> 490 46<-46 38 544 628> 720 47<-46 38 544 628> 952 47<-37.1406 38 85 497 544 618.614>
LayerCount: 3
Fore
SplineSet
111 675 m 1
 277 675 l 1
 513 675 l 1
 744 675 l 1
 902 675 l 2
 929 675 953 664 971 646 c 0
 988 629 999 604 999 578 c 2
 999 520 l 1
 999 62 l 1
 999 5 l 2
 999 -22 988 -46 971 -64 c 0
 953 -82 929 -93 902 -93 c 0
 638 -93 375 -93 111 -93 c 0
 85 -93 60 -82 43 -64 c 0
 25 -47 14 -22 14 5 c 2
 14 62 l 1
 14 520 l 1
 14 578 l 2
 14 604 25 629 43 646 c 0
 60 664 85 675 111 675 c 1
621 310 m 2
 624 308 626 306 628 303 c 0
 631 299 632 294 632 290 c 0
 632 283 629 275 622 271 c 2
 458 157 l 2
 454 154 449 152 443 152 c 0
 430 152 420 163 420 176 c 2
 420 405 l 1
 420 410 421 415 424 419 c 0
 428 425 436 429 444 429 c 0
 448 429 453 428 457 425 c 1
 621 310 l 2
767 -46 m 1
 902 -46 l 2
 916 -46 928 -40 937 -31 c 0
 947 -22 952 -9 952 5 c 2
 952 38 l 1
 767 38 l 1
 767 -46 l 1
720 -46 m 1
 720 38 l 1
 536 38 l 1
 536 -46 l 1
 720 -46 l 1
490 -46 m 1
 490 38 l 1
 301 38 l 1
 301 -46 l 1
 490 -46 l 1
254 -46 m 1
 254 38 l 1
 61 38 l 1
 61 5 l 2
 61 -9 67 -22 76 -31 c 0
 85 -40 98 -46 111 -46 c 2
 254 -46 l 1
61 85 m 1
 277 85 l 1
 513 85 l 1
 744 85 l 1
 952 85 l 1
 952 497 l 1
 744 497 l 1
 513 497 l 1
 277 497 l 1
 61 497 l 1
 61 85 l 1
720 628 m 1
 536 628 l 1
 536 544 l 1
 720 544 l 1
 720 628 l 1
767 544 m 1
 952 544 l 1
 952 578 l 2
 952 592 947 604 937 613 c 0
 928 622 916 628 902 628 c 2
 767 628 l 1
 767 544 l 1
490 628 m 1
 301 628 l 1
 301 544 l 1
 490 544 l 1
 490 628 l 1
254 628 m 1
 111 628 l 2
 98 628 85 622 76 613 c 0
 67 604 61 592 61 578 c 2
 61 544 l 1
 254 544 l 1
 254 628 l 1
EndSplineSet
Validated: 1
EndChar

StartChar: external_video_off
Encoding: 96 59742 101
Width: 1024
HStem: -91 47<181 256 303 492 538 722 769 945.115> 40 47<63 171 337 492 538 722 769 954> 499 47<63 256 303 492 538 719 883 954> 630 47<72.3859 256 303 492 538 722 769 877>
VStem: 16 47<-33.4383 40 87 499 546 620.614> 256 47<-44 19 546 630> 492 46<-44 40 546 630> 722 47<-44 40 546 630> 954 47<-35.1406 40 87 499 546 601.164>
LayerCount: 3
Fore
SplineSet
993 706 m 0
 1000 702 1008 694 1012 685 c 0
 1016 677 1016 668 1014 662 c 0
 1013 659 1010 655 985 633 c 1
 995 618 1001 599 1001 580 c 2
 1001 522 l 1
 1001 64 l 1
 1001 7 l 2
 1001 -20 990 -44 973 -62 c 0
 955 -80 931 -91 904 -91 c 0
 644 -91 385 -91 125 -91 c 1
 79 -129 59 -145 54 -146 c 0
 48 -147 39 -147 30 -143 c 0
 21 -139 13 -130 9 -122 c 0
 5 -114 5 -107 6 -102 c 0
 7 -99 12 -94 47 -64 c 1
 46 -64 45 -63 45 -62 c 0
 27 -45 16 -20 16 7 c 2
 16 64 l 1
 16 522 l 1
 16 580 l 2
 16 606 27 631 45 648 c 0
 62 666 87 677 113 677 c 2
 279 677 l 1
 515 677 l 1
 746 677 l 1
 904 677 l 2
 913 677 921 676 929 673 c 1
 969 705 971 709 980 709 c 0
 984 709 988 708 993 706 c 0
113 630 m 2
 100 630 87 624 78 615 c 0
 69 606 63 594 63 580 c 2
 63 546 l 1
 256 546 l 1
 256 630 l 1
 113 630 l 2
303 630 m 1
 303 546 l 1
 492 546 l 1
 492 630 l 1
 303 630 l 1
538 630 m 1
 538 546 l 1
 722 546 l 1
 722 630 l 1
 538 630 l 1
769 630 m 1
 769 546 l 1
 775 546 l 1
 784 553 798 565 806 571 c 0
 836 597 856 613 877 630 c 1
 769 630 l 1
949 602 m 1
 933 588 908 568 883 546 c 1
 954 546 l 1
 954 580 l 2
 954 588 952 595 949 602 c 1
63 87 m 1
 227 87 l 1
 284 135 350 190 422 250 c 1
 422 407 l 1
 422 412 423 417 426 421 c 0
 430 427 438 431 446 431 c 0
 450 431 455 430 459 427 c 2
 553 360 l 1
 615 412 668 456 719 499 c 1
 515 499 l 1
 279 499 l 1
 63 499 l 1
 63 87 l 1
613 319 m 1
 623 312 l 2
 626 310 628 308 630 305 c 0
 633 301 634 296 634 292 c 0
 634 285 631 277 624 273 c 2
 460 159 l 2
 456 156 451 154 445 154 c 0
 438 154 431 158 427 163 c 1
 395 136 366 112 337 87 c 1
 515 87 l 1
 746 87 l 1
 954 87 l 1
 954 499 l 1
 827 499 l 1
 769 450 691 385 613 319 c 1
63 40 m 1
 63 7 l 2
 63 -7 69 -20 78 -29 c 0
 80 -31 82 -32 83 -34 c 0
 105 -15 132 7 169 38 c 0
 170 39 171 40 171 40 c 1
 63 40 l 1
303 40 m 1
 303 -44 l 1
 492 -44 l 1
 492 40 l 1
 303 40 l 1
538 40 m 1
 538 -44 l 1
 722 -44 l 1
 722 40 l 1
 538 40 l 1
769 40 m 1
 769 -44 l 1
 904 -44 l 2
 918 -44 930 -38 939 -29 c 0
 949 -20 954 -7 954 7 c 2
 954 40 l 1
 769 40 l 1
256 19 m 1
 246 11 230 -2 222 -9 c 0
 199 -29 198 -30 181 -44 c 1
 256 -44 l 1
 256 19 l 1
EndSplineSet
Validated: 1
EndChar

StartChar: pin
Encoding: 102 59748 102
Width: 1024
HStem: 170.467 64.8535<204.117 429.397 591.53 819.2> 656.694 63.3193<253.298 285.696 738.986 770.702> 754.146 65.0225<253.298 770.702>
VStem: 139.946 64.1709<233.652 322.35> 182.401 69.5029<720.791 753.225> 285.696 64.1699<418.137 656.833> 429.397 64.8535<-124.104 170.467> 526.678 64.8525<-124.104 170.467> 673.45 65.5361<409.891 656.866> 771.413 70.1855<722.641 755.076> 819.2 65.5361<235.32 310.32>
LayerCount: 3
Fore
SplineSet
512 -205 m 0xe7a0
 494.014648438 -204.989257812 477.713867188 -197.689453125 465.919921875 -185.885742188 c 1
 448.51171875 -170.866210938 l 1
 436.7265625 -159.193359375 429.423828125 -143.00390625 429.397460938 -125.127929688 c 2
 429.397460938 170.466796875 l 1
 204.799804688 170.466796875 l 2
 169.092773438 170.653320312 140.1328125 199.61328125 139.946289062 235.3203125 c 2
 139.946289062 300.172851562 l 2xf7a0
 139.946289062 357.17578125 191.48828125 381.411132812 229.034179688 399.16015625 c 0
 266.581054688 416.909179688 285.696289062 427.490234375 285.696289062 446.263671875 c 2
 285.696289062 656.866210938 l 1
 268.970703125 656.866210938 l 2
 267.208007812 656.751953125 265.4296875 656.694335938 263.638671875 656.694335938 c 0
 218.802734375 656.694335938 182.401367188 693.095703125 182.401367188 737.931640625 c 0
 182.401367188 782.767578125 218.802734375 819.168945312 263.638671875 819.168945312 c 0
 265.4296875 819.168945312 267.208007812 819.114257812 268.970703125 819 c 2
 755.029296875 819 l 2
 756.791992188 819.114257812 758.5703125 819.172851562 760.361328125 819.172851562 c 0
 805.197265625 819.172851562 841.598632812 782.771484375 841.598632812 737.935546875 c 0xefc0
 841.598632812 693.098632812 805.197265625 656.698242188 760.361328125 656.698242188 c 0
 758.5703125 656.698242188 756.791992188 656.751953125 755.029296875 656.866210938 c 2
 738.986328125 656.866210938 l 1
 738.986328125 446.263671875 l 2
 738.986328125 418.616210938 777.8984375 396.770507812 812.373046875 377.997070312 c 0
 846.84765625 359.223632812 884.736328125 337.719726562 884.736328125 300.514648438 c 2
 884.736328125 235.661132812 l 2
 884.736328125 199.6796875 855.5234375 170.466796875 819.541015625 170.466796875 c 0
 819.42578125 170.466796875 819.315429688 170.465820312 819.200195312 170.466796875 c 2
 591.530273438 170.466796875 l 1
 591.530273438 -124.103515625 l 2
 591.533203125 -124.342773438 591.534179688 -124.58203125 591.534179688 -124.821289062 c 0
 591.534179688 -142.733398438 584.375 -158.986328125 572.7578125 -170.866210938 c 2
 556.373046875 -186.909179688 l 2
 544.84375 -197.990234375 529.203125 -204.850585938 512 -205 c 0xe7a0
819.200195312 296.077148438 m 1
 769.111398405 335.605176306 673.450195312 359.477629525 673.450195312 446.263671875 c 2
 673.450195312 656.866210938 l 2
 673.450195312 692.66015625 702.510742188 721.719726562 738.303710938 721.719726562 c 2
 754.346679688 721.719726562 l 2
 763.765625 721.719726562 771.413085938 729.3671875 771.413085938 738.787109375 c 0
 771.413085938 748.206054688 763.765625 755.853515625 754.346679688 755.853515625 c 2
 268.970703125 754.146484375 l 2
 259.551757812 754.146484375 251.904296875 746.499023438 251.904296875 737.080078125 c 0xefc0
 251.904296875 727.661132812 259.551757812 720.013671875 268.970703125 720.013671875 c 2
 285.013671875 720.013671875 l 2
 320.806640625 720.013671875 349.866210938 690.953125 349.866210938 655.16015625 c 2
 349.866210938 444.557617188 l 2
 349.866210938 382.776367188 295.594726562 357.17578125 256 338.744140625 c 0
 221.866210938 323.383789062 204.1171875 313.143554688 204.1171875 298.466796875 c 2
 204.1171875 233.61328125 l 1
 494.250976562 233.61328125 l 1
 494.250976562 -124.103515625 l 1
 510.634765625 -140.146484375 l 1
 526.677734375 -124.103515625 l 1
 526.677734375 235.3203125 l 1
 819.200195312 235.3203125 l 1
 819.200195312 296.077148438 l 1
EndSplineSet
Validated: 1
EndChar

StartChar: unpin
Encoding: 103 59749 103
Width: 1024
HStem: 170.467 64.8535<204.8 326.656 591.53 820.565> 656.698 65.0215<253.298 285.014 738.986 770.702> 755.854 63.3193<253.298 770.702>
VStem: 139.264 65.5361<235.32 324.593> 182.401 69.5029<722.641 755.076> 285.014 65.5361<417.467 656.866> 429.397 66.2188<-124.104 170.467> 526.678 64.8525<-124.104 170.467> 674.134 64.8525<580.066 656.866> 772.096 69.5029<722.639 755.074> 820.565 63.4883<235.32 311.769>
LayerCount: 3
Fore
SplineSet
923.82421875 751.447265625 m 0xefc0
 942.68877923 751.447265625 957.984375 736.114401306 957.984375 717.278320312 c 0
 957.984375 707.80859375 954.120117188 699.234375 947.8828125 693.047851562 c 2
 738.303710938 484.834960938 l 1
 738.303710938 445.922851562 l 2
 738.303710938 418.616210938 773.4609375 398.477539062 811.690429688 377.65625 c 0
 849.919921875 356.834960938 884.053710938 337.37890625 884.053710938 300.172851562 c 2
 884.053710938 235.3203125 l 2
 883.8671875 199.61328125 854.907226562 170.653320312 819.200195312 170.466796875 c 2
 591.530273438 170.466796875 l 1
 591.530273438 -125.127929688 l 2
 591.4453125 -142.911132812 584.303710938 -159.057617188 572.7578125 -170.866210938 c 2
 556.373046875 -186.909179688 l 2
 544.629882812 -198.678710938 528.377929688 -205.96484375 510.455078125 -205.96484375 c 0
 492.532226562 -205.96484375 476.297851562 -198.678710938 464.5546875 -186.909179688 c 2
 448.51171875 -170.866210938 l 2
 436.701171875 -159.171875 429.390625 -142.959960938 429.390625 -125.041015625 c 0
 429.390625 -124.728515625 429.392578125 -124.416015625 429.397460938 -124.103515625 c 2
 429.397460938 170.466796875 l 1
 423.594726562 170.466796875 l 1
 124.245117188 -127.517578125 l 2
 118.0703125 -133.6484375 109.556640625 -137.430664062 100.17578125 -137.430664062 c 0
 81.3271484375 -137.430664062 66.0234375 -122.127929688 66.0234375 -103.278320312 c 0
 66.0234375 -93.810546875 69.884765625 -85.236328125 76.1171875 -79.0478515625 c 2
 326.65625 170.466796875 l 1
 204.799804688 170.466796875 l 2
 204.68359375 170.465820312 204.57421875 170.47265625 204.458007812 170.47265625 c 0
 168.591796875 170.47265625 139.451171875 199.497070312 139.263671875 235.3203125 c 2
 139.263671875 300.172851562 l 2xf7a0
 139.263671875 357.17578125 189.78125 381.411132812 228.3515625 399.16015625 c 0
 266.922851562 416.909179688 285.013671875 427.490234375 285.013671875 446.263671875 c 2
 285.013671875 656.866210938 l 1
 268.970703125 656.866210938 l 2
 267.208007812 656.751953125 265.4296875 656.698242188 263.638671875 656.698242188 c 0
 218.802734375 656.698242188 182.401367188 693.098632812 182.401367188 737.935546875 c 0
 182.401367188 782.771484375 218.802734375 819.172851562 263.638671875 819.172851562 c 0
 265.4296875 819.172851562 267.208007812 819.114257812 268.970703125 819 c 2
 755.029296875 819 l 2
 756.791992188 819.114257812 758.5703125 819.168945312 760.361328125 819.168945312 c 0
 805.197265625 819.168945312 841.598632812 782.767578125 841.598632812 737.931640625 c 0
 841.598632812 693.095703125 805.197265625 656.694335938 760.361328125 656.694335938 c 0
 758.5703125 656.694335938 756.791992188 656.751953125 755.029296875 656.866210938 c 2
 738.986328125 656.866210938 l 1
 738.986328125 580.06640625 l 1
 899.754882812 741.517578125 l 2
 905.927734375 747.653320312 914.44140625 751.447265625 923.82421875 751.447265625 c 0xefc0
204.799804688 235.3203125 m 1
 391.850585938 235.3203125 l 1
 674.133789062 516.579101562 l 1
 674.133789062 656.866210938 l 2
 674.133789062 692.66015625 703.193359375 721.719726562 738.986328125 721.719726562 c 2
 755.029296875 721.719726562 l 2
 764.448242188 721.719726562 772.095703125 729.3671875 772.095703125 738.787109375 c 0
 772.095703125 748.206054688 764.448242188 755.853515625 755.029296875 755.853515625 c 2
 268.970703125 755.853515625 l 2
 259.551757812 755.853515625 251.904296875 748.206054688 251.904296875 738.787109375 c 0xefc0
 251.904296875 729.3671875 259.551757812 721.719726562 268.970703125 721.719726562 c 2
 285.696289062 721.719726562 l 2
 321.489257812 721.719726562 350.549804688 692.66015625 350.549804688 656.866210938 c 2
 350.549804688 446.263671875 l 2
 350.549804688 384.482421875 296.27734375 358.8828125 256.682617188 340.450195312 c 0
 224.255859375 325.090820312 204.799804688 314.850585938 204.799804688 300.172851562 c 2
 204.799804688 235.3203125 l 1
781.653320312 320.995117188 m 1
 780.970703125 320.995117188 l 1
 741.375976562 341.133789062 689.15234375 371.853515625 678.229492188 423.053710938 c 1
 489.813476562 235.3203125 l 1
 495.616210938 235.3203125 l 1
 495.616210938 -124.103515625 l 1
 512 -140.146484375 l 1
 526.677734375 -124.103515625 l 1
 526.677734375 235.3203125 l 1
 820.565429688 235.3203125 l 1
 820.565429688 296.077148438 l 1xe7a0
 808.4765625 305.6171875 795.490234375 313.948242188 781.653320312 320.995117188 c 1
EndSplineSet
Validated: 1
EndChar

StartChar: closed_captopn_stop
Encoding: 104 59750 104
Width: 1024
HStem: 111 69<280.657 389.548 644.766 775.063> 391 116<800.527 929> 713 104<225.697 791.498>
VStem: 0 84<316.162 572.156> 656 148<334.108 391> 932 92<299.497 391 507 593.875>
LayerCount: 3
Fore
SplineSet
145 248 m 5
 45 177 l 6
 11 222 0 288 0 426 c 6
 0 464 l 6
 2 630 8 703 45 753 c 4
 53 762 68 774 79 778 c 4
 117 805 307 817 516 817 c 4
 693 817 849 808 917 790 c 5
 795 704 l 6
 774 710 751 713 726 713 c 4
 629 713 551 640 529 517 c 6
 250 321 l 6
 224 346 217 393 217 443 c 4
 217 540 245 591 293 591 c 4
 334 591 360 560 364 507 c 6
 491 507 l 5
 480 637 410 713 287 713 c 4
 174 713 84 612 84 448 c 4
 84 363 106 294 145 248 c 5
986 740 m 2
 1017 690 1024 615 1024 464 c 0
 1024 299 1016 227 977 177 c 0
 970 168 956 156 945 151 c 0
 908 124 739 111 538 111 c 2
 516 111 l 2
 352 112 200 119 124 135 c 1
 213 197 l 2
 238 186 268 180 300 180 c 0
 406 180 482 259 494 391 c 1
 489 391 l 1
 524 416 l 1
 534 270 614 180 739 180 c 0
 845 180 920 259 932 391 c 1
 804 391 l 2
 799 342 779 305 736 305 c 0
 668 305 656 371 656 443 c 0
 656 470 659 494 664 514 c 2
 763 583 l 2
 786 572 800 545 803 507 c 2
 929 507 l 1
 923 572 904 623 870 659 c 1
 986 740 l 2
34 104 m 2
 19 125 l 2
 13 133 15 146 24 152 c 2
 968 815 l 2
 977 822 990 819 996 811 c 2
 1010 790 l 2
 1017 781 1014 769 1005 763 c 2
 61 99 l 2
 52 93 40 95 34 104 c 2
EndSplineSet
Validated: 1
EndChar

StartChar: link
Encoding: 105 59751 105
Width: 1024
HStem: -103 62<228.799 388.337> 150 60<437.154 490.102> 658 56<635.906 787.87>
VStem: 105 56<27.1526 179.576> 331 58<263.689 411.675> 629 58<198.836 357.938> 860 55<433.63 586.151>
LayerCount: 3
Fore
SplineSet
307 -103 m 0
 185 -103 105 -2 105 104 c 0
 105 154 123 206 164 249 c 1
 232 317 l 2
 237 322 245 324 252 324 c 0
 260 324 268 322 273 317 c 0
 278 312 280 304 280 297 c 0
 280 289 278 282 273 276 c 2
 205 208 l 2
 176 179 161 141 161 103 c 0
 161 66 175 30 203 2 c 0
 231 -27 270 -41 308 -41 c 0
 346 -41 384 -27 413 -0 c 1
 587 174 l 2
 616 203 629 241 629 277 c 0
 629 331 602 383 558 404 c 0
 539 413 530 425 530 436 c 0
 530 440 531 443 533 447 c 0
 537 455 544 461 556 461 c 0
 564 461 575 458 588 452 c 0
 650 423 687 353 687 280 c 0
 687 227 668 173 625 130 c 2
 451 -45 l 2
 413 -82 358 -103 307 -103 c 0
461 150 m 0
 447 150 331 211 331 340 c 0
 331 392 352 444 393 481 c 1
 567 655 l 2
 606 695 658 714 711 714 c 0
 763 714 815 695 855 656 c 0
 895 616 915 564 915 511 c 0
 915 458 896 406 857 365 c 1
 788 297 l 2
 783 292 776 290 768 290 c 0
 760 290 753 292 748 297 c 0
 742 302 740 310 740 317 c 0
 740 325 742 332 748 338 c 2
 816 406 l 2
 845 435 860 472 860 510 c 0
 860 548 845 585 816 614 c 0
 787 643 750 658 712 658 c 0
 674 658 637 643 608 614 c 2
 433 440 l 2
 406 413 389 375 389 336 c 0
 389 259 449 219 468 210 c 0
 484 203 492 190 492 177 c 0
 492 174 492 171 491 168 c 0
 488 153 478 150 461 150 c 0
EndSplineSet
Validated: 1
EndChar

StartChar: manage_layout
Encoding: 106 59752 106
Width: 1024
HStem: -77 341<128 470 682 768> 51 85<554 682 768 896> 350 341<128 470 554 896>
VStem: 128 342<-77 264 350 691> 554 342<51 136 350 691> 682 86<-77 51 136 264>
LayerCount: 3
Fore
SplineSet
554 350 m 1x38
 554 691 l 1
 896 691 l 1
 896 350 l 1
 554 350 l 1x38
128 350 m 1
 128 691 l 1
 470 691 l 1
 470 350 l 1
 128 350 l 1
128 -77 m 1xb0
 128 264 l 1
 470 264 l 1
 470 -77 l 1
 128 -77 l 1xb0
768 264 m 1xb4
 768 136 l 1x74
 896 136 l 1
 896 51 l 1x78
 768 51 l 1x74
 768 -77 l 1
 682 -77 l 1xb4
 682 51 l 1x74
 554 51 l 1
 554 136 l 1x78
 682 136 l 1x74
 682 264 l 1
 768 264 l 1xb4
EndSplineSet
Validated: 1
EndChar
